adventpro-ThinItalic.ufo
<glyph name="quotedbl" format="1">
  <advance width="222"/>
  <unicode hex="0022"/>
  <outline>
    <contour>
      <point x="316.253" y="721" type="line" smooth="yes"/>
      <point x="317.954" y="729"/>
      <point x="328.442" y="736"/>
      <point x="339.442" y="736"/>
      <point x="346.954" y="729"/>
      <point x="345.253" y="721" type="qcurve" smooth="yes"/>
      <point x="309.771" y="587" type="line"/>
      <point x="292.771" y="587" type="line"/>
    </contour>
    <contour>
      <point x="181.253" y="721" type="line" smooth="yes"/>
      <point x="182.954" y="729"/>
      <point x="192.442" y="736"/>
      <point x="204.442" y="736"/>
      <point x="210.954" y="729"/>
      <point x="209.253" y="721" type="qcurve" smooth="yes"/>
      <point x="174.771" y="587" type="line"/>
      <point x="157.771" y="587" type="line"/>
    </contour>
  </outline>
</glyph>
<glyph name="dollar" format="1">
  <advance width="523"/>
  <unicode hex="0024"/>
  <outline>
    <contour>
      <point x="240.981" y="-113" type="line"/>
      <point x="438.234" y="815" type="line"/>
      <point x="457.234" y="815" type="line"/>
      <point x="259.981" y="-113" type="line"/>
    </contour>
    <component base="S"/>
  </outline>
</glyph>
<glyph name="two" format="1">
  <advance width="412"/>
  <unicode hex="0032"/>
  <outline>
    <contour>
      <point x="164.983" y="588" type="line"/>
      <point x="199.737" y="648"/>
      <point x="300.49" y="708"/>
      <point x="368.49" y="708" type="qcurve" smooth="yes"/>
      <point x="410.49" y="708"/>
      <point x="475.35" y="665"/>
      <point x="505.833" y="592"/>
      <point x="495.056" y="546" type="qcurve" smooth="yes"/>
      <point x="487.254" y="514"/>
      <point x="448.8" y="446"/>
      <point x="418.361" y="411" type="qcurve"/>
      <point x="372.945" y="362"/>
      <point x="274.414" y="256"/>
      <point x="145.082" y="118"/>
      <point x="54.2511" y="20" type="qcurve"/>
      <point x="381.251" y="20" type="line"/>
      <point x="377" y="0" type="line"/>
      <point x="28" y="0" type="line"/>
      <point x="32.2511" y="20" type="line"/>
      <point x="125.507" y="120"/>
      <point x="312.018" y="320"/>
      <point x="406.699" y="422" type="qcurve" smooth="yes"/>
      <point x="425.163" y="443"/>
      <point x="451.665" y="483"/>
      <point x="470.167" y="523"/>
      <point x="473.993" y="541" type="qcurve" smooth="yes"/>
      <point x="483.708" y="582"/>
      <point x="458.949" y="649"/>
      <point x="400.451" y="689"/>
      <point x="358.451" y="689" type="qcurve" smooth="yes"/>
      <point x="294.451" y="689"/>
      <point x="206.273" y="627"/>
      <point x="182.495" y="581" type="qcurve"/>
    </contour>
  </outline>
</glyph>
<glyph name="four" format="1">
  <advance width="463"/>
  <unicode hex="0034"/>
  <outline>
    <contour>
      <point x="345" y="0" type="line"/>
      <point x="427.535" y="393" type="line"/>
      <point x="98.5347" y="393" type="line"/>
      <point x="334.364" y="698" type="line"/>
      <point x="354.364" y="698" type="line"/>
      <point x="135.786" y="413" type="line"/>
      <point x="431.786" y="413" type="line"/>
      <point x="492.364" y="698" type="line"/>
      <point x="511.364" y="698" type="line"/>
      <point x="450.786" y="413" type="line"/>
      <point x="523.786" y="413" type="line"/>
      <point x="514.535" y="393" type="line"/>
      <point x="446.535" y="393" type="line"/>
      <point x="363" y="0" type="line"/>
    </contour>
  </outline>
</glyph>
<glyph name="six" format="1">
  <advance width="480"/>
  <unicode hex="0036"/>
  <outline>
    <contour>
      <point x="414.326" y="679" type="line" smooth="yes"/>
      <point x="372.326" y="679"/>
      <point x="294.012" y="654"/>
      <point x="258.123" y="631" type="qcurve" smooth="yes"/>
      <point x="218.809" y="606"/>
      <point x="160.104" y="518"/>
      <point x="145.65" y="450" type="qcurve" smooth="yes"/>
      <point x="111.216" y="288" type="line"/>
      <point x="140.781" y="333"/>
      <point x="212.472" y="388"/>
      <point x="290.998" y="414"/>
      <point x="328.998" y="414" type="qcurve" smooth="yes"/>
      <point x="373.998" y="414"/>
      <point x="442.409" y="383"/>
      <point x="466.82" y="352" type="qcurve" smooth="yes"/>
      <point x="516.854" y="291"/>
      <point x="497.936" y="202" type="qcurve" smooth="yes"/>
      <point x="479.444" y="115"/>
      <point x="403.265" y="53" type="qcurve"/>
      <point x="328.874" y="-10"/>
      <point x="239.874" y="-10" type="qcurve" smooth="yes"/>
      <point x="152.874" y="-10"/>
      <point x="104.053" y="52" type="qcurve"/>
      <point x="53.8063" y="112"/>
      <point x="72.9364" y="202" type="qcurve" smooth="yes"/>
      <point x="128.201" y="462" type="line" smooth="yes"/>
      <point x="136.916" y="503"/>
      <point x="175.283" y="580"/>
      <point x="207.51" y="614" type="qcurve" smooth="yes"/>
      <point x="242.162" y="650"/>
      <point x="355.152" y="697"/>
      <point x="422.152" y="697" type="qcurve" smooth="yes"/>
      <point x="456.152" y="697" type="line"/>
      <point x="452.326" y="679" type="line"/>
    </contour>
    <contour>
      <point x="325.96" y="395" type="qcurve" smooth="yes"/>
      <point x="272.96" y="395"/>
      <point x="174.907" y="343"/>
      <point x="104.202" y="255"/>
      <point x="92.7239" y="201" type="qcurve" smooth="yes"/>
      <point x="81.4584" y="148"/>
      <point x="114.966" y="61"/>
      <point x="190.913" y="9"/>
      <point x="243.913" y="9" type="qcurve" smooth="yes"/>
      <point x="297.913" y="9"/>
      <point x="395.966" y="61"/>
      <point x="466.458" y="148"/>
      <point x="477.724" y="201" type="qcurve" smooth="yes"/>
      <point x="489.202" y="255"/>
      <point x="455.907" y="343"/>
      <point x="379.96" y="395"/>
    </contour>
  </outline>
</glyph>
<glyph name="nine" format="1">
  <advance width="479"/>
  <unicode hex="0039"/>
  <outline>
    <contour>
      <point x="384.065" y="706" type="qcurve" smooth="yes"/>
      <point x="473.065" y="706"/>
      <point x="521.099" y="645" type="qcurve" smooth="yes"/>
      <point x="569.92" y="583"/>
      <point x="551.003" y="494" type="qcurve" smooth="yes"/>
      <point x="495.738" y="234" type="line" smooth="yes"/>
      <point x="487.236" y="194"/>
      <point x="445.869" y="117"/>
      <point x="412.43" y="82" type="qcurve" smooth="yes"/>
      <point x="378.565" y="45"/>
      <point x="268.787" y="-1"/>
      <point x="202.787" y="-1" type="qcurve" smooth="yes"/>
      <point x="167.787" y="-1" type="line"/>
      <point x="172.251" y="20" type="line"/>
      <point x="210.251" y="20" type="line" smooth="yes"/>
      <point x="252.251" y="20"/>
      <point x="330.927" y="42"/>
      <point x="366.816" y="65" type="qcurve" smooth="yes"/>
      <point x="406.13" y="90"/>
      <point x="465.898" y="183"/>
      <point x="479.289" y="246" type="qcurve" smooth="yes"/>
      <point x="513.723" y="408" type="line"/>
      <point x="484.371" y="364"/>
      <point x="411.467" y="308"/>
      <point x="334.154" y="283"/>
      <point x="295.154" y="283" type="qcurve" smooth="yes"/>
      <point x="250.154" y="283"/>
      <point x="181.743" y="314"/>
      <point x="157.119" y="344" type="qcurve" smooth="yes"/>
      <point x="108.298" y="406"/>
      <point x="127.003" y="494" type="qcurve" smooth="yes"/>
      <point x="145.92" y="583"/>
      <point x="220.674" y="643" type="qcurve"/>
      <point x="296.065" y="706"/>
    </contour>
    <contour>
      <point x="380.026" y="687" type="qcurve" smooth="yes"/>
      <point x="327.026" y="687"/>
      <point x="228.186" y="636"/>
      <point x="157.694" y="549"/>
      <point x="146.216" y="495" type="qcurve" smooth="yes"/>
      <point x="134.95" y="442"/>
      <point x="168.032" y="353"/>
      <point x="244.98" y="301"/>
      <point x="297.98" y="301" type="qcurve" smooth="yes"/>
      <point x="350.98" y="301"/>
      <point x="450.032" y="353"/>
      <point x="520.95" y="442"/>
      <point x="532.216" y="495" type="qcurve" smooth="yes"/>
      <point x="543.694" y="549"/>
      <point x="510.186" y="636"/>
      <point x="433.026" y="687"/>
    </contour>
  </outline>
</glyph>
<glyph name="less" format="1">
  <advance width="349"/>
  <unicode hex="003C"/>
  <outline>
    <contour>
      <point x="101.095" y="358" type="line"/>
      <point x="436.973" y="635" type="line"/>
      <point x="448.423" y="623" type="line"/>
      <point x="124.67" y="356" type="line"/>
      <point x="335.98" y="94" type="line"/>
      <point x="318.792" y="79" type="line"/>
    </contour>
  </outline>
</glyph>
<glyph name="A" format="1">
  <advance width="542"/>
  <unicode hex="0041"/>
    <anchor name="top" x="427.229" y="735"/>
    <anchor name="tonos" x="238.79" y="700"/>
    <anchor name="ogonek" x="270" y="0"/>
  <outline>
    <contour>
      <point x="524" y="0" type="line"/>
      <point x="503" y="0" type="line"/>
      <point x="464.516" y="280" type="line"/>
      <point x="197.516" y="280" type="line"/>
      <point x="40" y="0" type="line"/>
      <point x="20" y="0" type="line"/>
      <point x="413.364" y="698" type="line"/>
      <point x="427.364" y="698" type="line"/>
    </contour>
    <contour>
      <point x="209.554" y="299" type="line"/>
      <point x="462.554" y="299" type="line"/>
      <point x="411.862" y="658" type="line"/>
    </contour>
    <contour>
      <point x="427.229" y="735" type="move" name="top"/>
    </contour>
    <contour>
      <point x="238.79" y="700" type="move" name="tonos"/>
    </contour>
    <contour>
      <point x="270" y="0" type="move" name="ogonek"/>
    </contour>
  </outline>
</glyph>
<glyph name="E" format="1">
  <advance width="402"/>
  <unicode hex="0045"/>
    <anchor name="tonos" x="215.79" y="700"/>
    <anchor name="top" x="357.229" y="735"/>
    <anchor name="ogonek" x="201" y="0"/>
  <outline>
    <contour>
      <point x="41" y="0" type="line"/>
      <point x="189.364" y="698" type="line"/>
      <point x="522.364" y="698" type="line"/>
      <point x="518.326" y="679" type="line"/>
      <point x="204.326" y="679" type="line"/>
      <point x="147.361" y="411" type="line"/>
      <point x="374.361" y="411" type="line"/>
      <point x="364.535" y="393" type="line"/>
      <point x="143.535" y="393" type="line"/>
      <point x="64.0386" y="19" type="line"/>
      <point x="376.039" y="19" type="line"/>
      <point x="372" y="0" type="line"/>
    </contour>
    <contour>
      <point x="215.79" y="700" type="move" name="tonos"/>
    </contour>
    <contour>
      <point x="357.229" y="735" type="move" name="top"/>
    </contour>
    <contour>
      <point x="201" y="0" type="move" name="ogonek"/>
    </contour>
  </outline>
</glyph>
<glyph name="G" format="1">
  <advance width="475"/>
  <unicode hex="0047"/>
    <anchor name="bottom" x="237" y="0"/>
    <anchor name="top" x="393.229" y="735"/>
  <outline>
    <contour>
      <point x="501.678" y="657" type="line"/>
      <point x="468.08" y="673"/>
      <point x="405.481" y="689"/>
      <point x="376.481" y="689" type="qcurve" smooth="yes"/>
      <point x="335.481" y="689"/>
      <point x="265.804" y="667"/>
      <point x="238.127" y="645" type="qcurve"/>
      <point x="214.662" y="624"/>
      <point x="169.292" y="547"/>
      <point x="158.237" y="495" type="qcurve" smooth="yes"/>
      <point x="92.5436" y="186" type="line" smooth="yes"/>
      <point x="75.9608" y="108"/>
      <point x="158.913" y="9"/>
      <point x="249.913" y="9" type="qcurve" smooth="yes"/>
      <point x="340.913" y="9"/>
      <point x="395.331" y="58" type="qcurve"/>
      <point x="421.646" y="83"/>
      <point x="455.827" y="145"/>
      <point x="463.693" y="182" type="qcurve" smooth="yes"/>
      <point x="484.528" y="280" type="line"/>
      <point x="309.528" y="280" type="line"/>
      <point x="305.567" y="299" type="line"/>
      <point x="507.567" y="299" type="line"/>
      <point x="444" y="0" type="line"/>
      <point x="425" y="0" type="line"/>
      <point x="443.709" y="88" type="line"/>
      <point x="421.693" y="55"/>
      <point x="361.551" y="12"/>
      <point x="287.874" y="-10"/>
      <point x="242.874" y="-10" type="qcurve" smooth="yes"/>
      <point x="197.874" y="-10"/>
      <point x="129.189" y="15"/>
      <point x="103.504" y="40" type="qcurve" smooth="yes"/>
      <point x="77.819" y="65"/>
      <point x="62.5514" y="139"/>
      <point x="72.9688" y="188" type="qcurve" smooth="yes"/>
      <point x="139.725" y="502" type="line" smooth="yes"/>
      <point x="153.119" y="565"/>
      <point x="216.466" y="656"/>
      <point x="264.993" y="682" type="qcurve"/>
      <point x="290.544" y="694"/>
      <point x="346.308" y="707"/>
      <point x="377.308" y="707" type="qcurve" smooth="yes"/>
      <point x="455.308" y="707"/>
      <point x="512.292" y="674" type="qcurve"/>
    </contour>
    <contour>
      <point x="237" y="0" type="move" name="bottom"/>
    </contour>
    <contour>
      <point x="393.229" y="735" type="move" name="top"/>
    </contour>
  </outline>
</glyph>
<glyph name="M" format="1">
  <advance width="619"/>
  <unicode hex="004D"/>
  <outline>
    <contour>
      <point x="207.364" y="698" type="line"/>
      <point x="314.377" y="30" type="line"/>
      <point x="706.364" y="698" type="line"/>
      <point x="724.364" y="698" type="line"/>
      <point x="576" y="0" type="line"/>
      <point x="558" y="0" type="line"/>
      <point x="695.312" y="646" type="line"/>
      <point x="316" y="0" type="line"/>
      <point x="298" y="0" type="line"/>
      <point x="196.312" y="646" type="line"/>
      <point x="59" y="0" type="line"/>
      <point x="41" y="0" type="line"/>
      <point x="189.364" y="698" type="line"/>
    </contour>
  </outline>
</glyph>
<glyph name="N" format="1">
  <advance width="575"/>
  <unicode hex="004E"/>
    <anchor name="top" x="443.229" y="735"/>
    <anchor name="bottom" x="287" y="0"/>
  <outline>
    <contour>
      <point x="680.395" y="698" type="line"/>
      <point x="532" y="0" type="line"/>
      <point x="515" y="0" type="line"/>
      <point x="201.017" y="668" type="line"/>
      <point x="59" y="0" type="line"/>
      <point x="41" y="0" type="line"/>
      <point x="189.395" y="698" type="line"/>
      <point x="207.395" y="698" type="line"/>
      <point x="521.803" y="32" type="line"/>
      <point x="663.395" y="698" type="line"/>
    </contour>
    <contour>
      <point x="443.229" y="735" type="move" name="top"/>
    </contour>
    <contour>
      <point x="287" y="0" type="move" name="bottom"/>
    </contour>
  </outline>
</glyph>
<glyph name="R" format="1">
  <advance width="507"/>
  <unicode hex="0052"/>
    <anchor name="top" x="409.229" y="735"/>
    <anchor name="bottom" x="253" y="0"/>
  <outline>
    <contour>
      <point x="438.395" y="698" type="line" smooth="yes"/>
      <point x="485.395" y="698"/>
      <point x="549.442" y="670"/>
      <point x="583.174" y="617"/>
      <point x="588.804" y="540"/>
      <point x="578.599" y="492" type="qcurve" smooth="yes"/>
      <point x="559.89" y="404"/>
      <point x="472.567" y="299"/>
      <point x="398.591" y="285" type="qcurve"/>
      <point x="474" y="0" type="line"/>
      <point x="454" y="0" type="line"/>
      <point x="379.166" y="283" type="line"/>
      <point x="369.953" y="282"/>
      <point x="351.528" y="280"/>
      <point x="342.528" y="280" type="qcurve" smooth="yes"/>
      <point x="119.528" y="280" type="line"/>
      <point x="60" y="0" type="line"/>
      <point x="41" y="0" type="line"/>
      <point x="189.395" y="698" type="line"/>
    </contour>
    <contour>
      <point x="345.567" y="299" type="line" smooth="yes"/>
      <point x="406.567" y="299"/>
      <point x="491.922" y="343"/>
      <point x="546.418" y="430"/>
      <point x="559.599" y="492" type="qcurve" smooth="yes"/>
      <point x="572.143" y="551"/>
      <point x="555.788" y="634"/>
      <point x="493.143" y="678"/>
      <point x="435.143" y="678" type="qcurve" smooth="yes"/>
      <point x="204.143" y="678" type="line"/>
      <point x="123.567" y="299" type="line"/>
    </contour>
    <contour>
      <point x="409.229" y="735" type="move" name="top"/>
    </contour>
    <contour>
      <point x="253" y="0" type="move" name="bottom"/>
    </contour>
  </outline>
</glyph>
<glyph name="S" format="1">
  <advance width="523"/>
  <unicode hex="0053"/>
    <anchor name="bottom" x="261" y="0"/>
    <anchor name="top" x="417.229" y="735"/>
  <outline>
    <contour>
      <point x="565.403" y="651" type="line"/>
      <point x="529.93" y="677"/>
      <point x="471.907" y="691"/>
      <point x="423.907" y="691" type="curve" smooth="yes"/>
      <point x="332.907" y="691"/>
      <point x="215.403" y="651"/>
      <point x="192.442" y="543" type="curve" smooth="yes"/>
      <point x="174.371" y="458"/>
      <point x="247.355" y="425"/>
      <point x="309.615" y="398" type="curve" smooth="yes"/>
      <point x="352.575" y="379"/>
      <point x="413.323" y="359"/>
      <point x="459.733" y="328" type="curve" smooth="yes"/>
      <point x="511.292" y="293"/>
      <point x="547.087" y="245"/>
      <point x="531.78" y="173" type="curve" smooth="yes"/>
      <point x="503.291" y="39"/>
      <point x="370.449" y="-12"/>
      <point x="254.449" y="-12" type="curve" smooth="yes"/>
      <point x="165.449" y="-12"/>
      <point x="77.8898" y="23"/>
      <point x="42.0474" y="99" type="curve"/>
      <point x="57.1734" y="109" type="line"/>
      <point x="95.504" y="40"/>
      <point x="173.488" y="7"/>
      <point x="258.488" y="7" type="curve" smooth="yes"/>
      <point x="365.488" y="7"/>
      <point x="487.268" y="53"/>
      <point x="512.567" y="172" type="curve" smooth="yes"/>
      <point x="526.599" y="238"/>
      <point x="495.741" y="281"/>
      <point x="447.331" y="312" type="curve" smooth="yes"/>
      <point x="406.859" y="338"/>
      <point x="351.898" y="357"/>
      <point x="303.363" y="378" type="curve" smooth="yes"/>
      <point x="222.804" y="413"/>
      <point x="154.095" y="452"/>
      <point x="172.804" y="540" type="curve" smooth="yes"/>
      <point x="198.741" y="662"/>
      <point x="322.521" y="708"/>
      <point x="426.521" y="708" type="curve" smooth="yes"/>
      <point x="480.521" y="708"/>
      <point x="533.757" y="695"/>
      <point x="576.442" y="670" type="curve"/>
    </contour>
    <contour>
      <point x="261" y="0" type="move" name="bottom"/>
    </contour>
    <contour>
      <point x="417.229" y="735" type="move" name="top"/>
    </contour>
  </outline>
</glyph>
<glyph name="T" format="1">
  <advance width="408"/>
  <unicode hex="0054"/>
    <anchor name="bottom" x="204" y="0"/>
    <anchor name="top" x="360.229" y="735"/>
  <outline>
    <contour>
      <point x="354.143" y="678" type="line"/>
      <point x="210" y="0" type="line"/>
      <point x="192" y="0" type="line"/>
      <point x="335.143" y="678" type="line"/>
      <point x="146.143" y="678" type="line"/>
      <point x="150.395" y="698" type="line"/>
      <point x="552.395" y="698" type="line"/>
      <point x="548.143" y="678" type="line"/>
    </contour>
    <contour>
      <point x="204" y="0" type="move" name="bottom"/>
    </contour>
    <contour>
      <point x="360.229" y="735" type="move" name="top"/>
    </contour>
  </outline>
</glyph>
<glyph name="bracketleft" format="1">
  <advance width="218"/>
  <unicode hex="005B"/>
  <outline>
    <contour>
      <point x="230.195" y="796" type="line"/>
      <point x="40.8071" y="-95" type="line"/>
      <point x="182.595" y="-96" type="line"/>
      <point x="178.981" y="-113" type="line"/>
      <point x="17.9811" y="-113" type="line"/>
      <point x="215.234" y="815" type="line"/>
      <point x="376.234" y="815" type="line"/>
      <point x="372.62" y="798" type="line"/>
    </contour>
  </outline>
</glyph>
<glyph name="f" format="1">
  <advance width="246"/>
  <unicode hex="0066"/>
  <outline>
    <contour>
      <point x="365.026" y="687" type="line"/>
      <point x="358.451" y="689"/>
      <point x="346.877" y="691"/>
      <point x="339.877" y="691" type="qcurve"/>
      <point x="309.089" y="692"/>
      <point x="241.988" y="668"/>
      <point x="187.597" y="605"/>
      <point x="175.481" y="548" type="qcurve" smooth="yes"/>
      <point x="164.853" y="498" type="line"/>
      <point x="314.853" y="498" type="line"/>
      <point x="304.452" y="482" type="line"/>
      <point x="161.452" y="482" type="line"/>
      <point x="59" y="0" type="line"/>
      <point x="39" y="0" type="line"/>
      <point x="155.481" y="548" type="line" smooth="yes"/>
      <point x="168.447" y="609"/>
      <point x="228.326" y="679"/>
      <point x="302.49" y="708"/>
      <point x="337.49" y="708" type="qcurve" smooth="yes"/>
      <point x="346.49" y="708"/>
      <point x="365.277" y="707"/>
      <point x="372.852" y="705" type="qcurve"/>
    </contour>
  </outline>
</glyph>
<glyph name="h" format="1">
  <advance width="442"/>
  <unicode hex="0068"/>
    <anchor name="top" x="377.229" y="735"/>
  <outline>
    <contour>
      <point x="161.114" y="471" type="line"/>
      <point x="187.452" y="482"/>
      <point x="274.554" y="506"/>
      <point x="313.979" y="508" type="qcurve" smooth="yes"/>
      <point x="347.404" y="510"/>
      <point x="416.916" y="503"/>
      <point x="471.114" y="471"/>
      <point x="495.873" y="404"/>
      <point x="483.332" y="345" type="qcurve" smooth="yes"/>
      <point x="410" y="0" type="line"/>
      <point x="391" y="0" type="line"/>
      <point x="464.545" y="346" type="line" smooth="yes"/>
      <point x="476.66" y="403"/>
      <point x="449.689" y="469"/>
      <point x="378.428" y="496"/>
      <point x="323.79" y="493" type="qcurve" smooth="yes"/>
      <point x="280.365" y="491"/>
      <point x="187.264" y="467"/>
      <point x="157.288" y="453" type="qcurve"/>
      <point x="61" y="0" type="line"/>
      <point x="41" y="0" type="line"/>
      <point x="189.364" y="698" type="line"/>
      <point x="209.364" y="698" type="line"/>
    </contour>
    <contour>
      <point x="377.229" y="735" type="move" name="top"/>
    </contour>
  </outline>
</glyph>
<glyph name="k" format="1">
  <advance width="424"/>
  <unicode hex="006B"/>
    <anchor name="bottom" x="212" y="0"/>
  <outline>
    <contour>
      <point x="253.363" y="378" type="line"/>
      <point x="287.867" y="291"/>
      <point x="364.473" y="101"/>
      <point x="407" y="0" type="qcurve"/>
      <point x="384" y="0" type="line"/>
      <point x="236.599" y="365" type="line"/>
      <point x="119.678" y="276" type="line"/>
      <point x="61" y="0" type="line"/>
      <point x="41" y="0" type="line"/>
      <point x="189.395" y="698" type="line"/>
      <point x="209.395" y="698" type="line"/>
      <point x="124.78" y="300" type="line"/>
      <point x="407.127" y="518" type="line"/>
      <point x="417.576" y="506" type="line"/>
    </contour>
    <contour>
      <point x="212" y="0" type="move" name="bottom"/>
    </contour>
  </outline>
</glyph>
<glyph name="l" format="1">
  <advance width="104"/>
  <unicode hex="006C"/>
    <anchor name="top" x="208.229" y="735"/>
    <anchor name="bottom" x="52" y="0"/>
  <outline>
    <contour>
      <point x="41" y="0" type="line"/>
      <point x="189.395" y="698" type="line"/>
      <point x="209.395" y="698" type="line"/>
      <point x="61" y="0" type="line"/>
    </contour>
    <contour>
      <point x="208.229" y="735" type="move" name="top"/>
    </contour>
    <contour>
      <point x="52" y="0" type="move" name="bottom"/>
    </contour>
  </outline>
</glyph>
<glyph name="n" format="1">
  <advance width="442"/>
  <unicode hex="006E"/>
    <anchor name="top" x="336.843" y="545"/>
    <anchor name="bottom" x="221" y="0"/>
  <outline>
    <contour>
      <point x="461.347" y="345" type="line" smooth="yes"/>
      <point x="473.465" y="402"/>
      <point x="446.709" y="469"/>
      <point x="375.45" y="496"/>
      <point x="320.812" y="493" type="qcurve" smooth="yes"/>
      <point x="277.387" y="491"/>
      <point x="184.072" y="466"/>
      <point x="153.095" y="452" type="qcurve"/>
      <point x="57" y="0" type="line"/>
      <point x="38" y="0" type="line"/>
      <point x="144.087" y="499" type="line"/>
      <point x="163.087" y="499" type="line"/>
      <point x="157.135" y="471" type="line"/>
      <point x="183.473" y="482"/>
      <point x="271.576" y="506"/>
      <point x="311.001" y="508" type="qcurve" smooth="yes"/>
      <point x="344.426" y="510"/>
      <point x="412.938" y="503"/>
      <point x="468.135" y="471"/>
      <point x="491.678" y="403"/>
      <point x="479.134" y="344" type="qcurve" smooth="yes"/>
      <point x="406" y="0" type="line"/>
      <point x="388" y="0" type="line"/>
    </contour>
    <contour>
      <point x="336.843" y="545" type="move" name="top"/>
    </contour>
    <contour>
      <point x="221" y="0" type="move" name="bottom"/>
    </contour>
  </outline>
</glyph>
<glyph name="o" format="1">
  <advance width="426"/>
  <unicode hex="006F"/>
    <anchor name="top" x="328.843" y="545"/>
    <anchor name="tonos" x="328.843" y="545"/>
  <outline>
    <contour>
      <point x="435.11" y="184" type="line" smooth="yes"/>
      <point x="417.043" y="99"/>
      <point x="303.874" y="-10"/>
      <point x="211.874" y="-10" type="qcurve" smooth="yes"/>
      <point x="147.874" y="-10"/>
      <point x="75.9274" y="42"/>
      <point x="54.8449" y="131"/>
      <point x="66.1104" y="184" type="qcurve" smooth="yes"/>
      <point x="93.9553" y="315" type="line" smooth="yes"/>
      <point x="114.148" y="410"/>
      <point x="233.404" y="510"/>
      <point x="322.404" y="510" type="qcurve" smooth="yes"/>
      <point x="411.404" y="510"/>
      <point x="482.298" y="406"/>
      <point x="462.955" y="315" type="qcurve" smooth="yes"/>
    </contour>
    <contour>
      <point x="444.806" y="319" type="line" smooth="yes"/>
      <point x="463.085" y="405"/>
      <point x="389.578" y="492"/>
      <point x="318.578" y="492" type="qcurve" smooth="yes"/>
      <point x="246.578" y="492"/>
      <point x="134.361" y="411"/>
      <point x="114.806" y="319" type="qcurve" smooth="yes"/>
      <point x="86.1104" y="184" type="line" smooth="yes"/>
      <point x="75.6951" y="135"/>
      <point x="95.6906" y="55"/>
      <point x="160.7" y="8"/>
      <point x="215.7" y="8" type="qcurve" smooth="yes"/>
      <point x="272.7" y="8"/>
      <point x="354.478" y="54"/>
      <point x="405.483" y="134"/>
      <point x="416.11" y="184" type="qcurve" smooth="yes"/>
    </contour>
    <contour>
      <point x="328.843" y="545" type="move" name="top"/>
    </contour>
    <contour>
      <point x="328.843" y="545" type="move" name="tonos"/>
    </contour>
  </outline>
</glyph>
<glyph name="p" format="1">
  <advance width="439"/>
  <unicode hex="0070"/>
  <outline>
    <contour>
      <point x="445.197" y="175" type="line" smooth="yes"/>
      <point x="425.855" y="84"/>
      <point x="314.449" y="-12"/>
      <point x="231.449" y="-12" type="qcurve" smooth="yes"/>
      <point x="201.449" y="-12"/>
      <point x="133.126" y="10"/>
      <point x="81.8404" y="51"/>
      <point x="76.0045" y="80" type="qcurve"/>
      <point x="13.938" y="-212" type="line"/>
      <point x="-4.78666" y="-206" type="line"/>
      <point x="144.853" y="498" type="line"/>
      <point x="164.853" y="498" type="line"/>
      <point x="154.863" y="451" type="line"/>
      <point x="183.689" y="469"/>
      <point x="252.003" y="494"/>
      <point x="317.766" y="507"/>
      <point x="341.979" y="508" type="qcurve" smooth="yes"/>
      <point x="423.829" y="512"/>
      <point x="498.124" y="424"/>
      <point x="481.119" y="344" type="qcurve" smooth="yes"/>
    </contour>
    <contour>
      <point x="464.545" y="346" type="line" smooth="yes"/>
      <point x="475.597" y="398"/>
      <point x="449.201" y="462"/>
      <point x="392.578" y="492"/>
      <point x="355.79" y="493" type="qcurve" smooth="yes"/>
      <point x="328.003" y="494"/>
      <point x="251.602" y="478"/>
      <point x="176.225" y="448"/>
      <point x="149.549" y="426" type="qcurve"/>
      <point x="90.2458" y="147" type="line" smooth="yes"/>
      <point x="80.0431" y="99"/>
      <point x="125.014" y="33"/>
      <point x="207.425" y="2"/>
      <point x="251.85" y="4" type="qcurve" smooth="yes"/>
      <point x="317.7" y="8"/>
      <point x="410.555" y="92"/>
      <point x="426.709" y="168" type="qcurve" smooth="yes"/>
    </contour>
  </outline>
</glyph>
<glyph name="s" format="1">
  <advance width="405"/>
  <unicode hex="0073"/>
    <anchor name="bottom" x="202" y="0"/>
    <anchor name="top" x="317.843" y="545"/>
  <outline>
    <contour>
      <point x="420.796" y="460" type="line"/>
      <point x="420.796" y="460"/>
      <point x="395.198" y="476"/>
      <point x="347.599" y="492"/>
      <point x="312.599" y="492" type="qcurve" smooth="yes"/>
      <point x="290.599" y="492"/>
      <point x="240.261" y="481"/>
      <point x="216.922" y="470" type="qcurve"/>
      <point x="195.371" y="458"/>
      <point x="160.505" y="421"/>
      <point x="152.764" y="394" type="qcurve" smooth="yes"/>
      <point x="146.237" y="368"/>
      <point x="158.158" y="330"/>
      <point x="178.969" y="315" type="qcurve" smooth="yes"/>
      <point x="195.205" y="302"/>
      <point x="244.315" y="279"/>
      <point x="277.552" y="266" type="qcurve" smooth="yes"/>
      <point x="315.363" y="251"/>
      <point x="365.41" y="223"/>
      <point x="379.221" y="208" type="qcurve" smooth="yes"/>
      <point x="400.544" y="186"/>
      <point x="407.551" y="139"/>
      <point x="401.024" y="113" type="qcurve" smooth="yes"/>
      <point x="395.347" y="91"/>
      <point x="364.78" y="46"/>
      <point x="340.528" y="26" type="qcurve"/>
      <point x="314.488" y="7"/>
      <point x="244.811" y="-15"/>
      <point x="198.811" y="-15" type="qcurve" smooth="yes"/>
      <point x="168.811" y="-15"/>
      <point x="121.937" y="-5"/>
      <point x="103.85" y="4" type="qcurve" smooth="yes"/>
      <point x="80.6142" y="17"/>
      <point x="49.63" y="50"/>
      <point x="39.4568" y="68" type="qcurve"/>
      <point x="55.2206" y="81" type="line"/>
      <point x="63.819" y="65"/>
      <point x="91.0158" y="33"/>
      <point x="112.677" y="22" type="qcurve" smooth="yes"/>
      <point x="130.764" y="13"/>
      <point x="174.425" y="2"/>
      <point x="202.425" y="2" type="qcurve" smooth="yes"/>
      <point x="246.425" y="2"/>
      <point x="312.528" y="26"/>
      <point x="334.142" y="43" type="qcurve" smooth="yes"/>
      <point x="354.543" y="59"/>
      <point x="377.41" y="96"/>
      <point x="382.236" y="114" type="qcurve" smooth="yes"/>
      <point x="388.914" y="136"/>
      <point x="382.205" y="175"/>
      <point x="365.244" y="194" type="qcurve" smooth="yes"/>
      <point x="352.221" y="208"/>
      <point x="303.961" y="235"/>
      <point x="267.937" y="249" type="qcurve" smooth="yes"/>
      <point x="235.489" y="261"/>
      <point x="181.591" y="285"/>
      <point x="161.78" y="300" type="qcurve"/>
      <point x="142.394" y="317"/>
      <point x="126.174" y="363"/>
      <point x="133.977" y="395" type="qcurve" smooth="yes"/>
      <point x="142.568" y="426"/>
      <point x="180.709" y="469"/>
      <point x="205.686" y="483" type="qcurve" smooth="yes"/>
      <point x="231.662" y="497"/>
      <point x="290.426" y="510"/>
      <point x="316.426" y="510" type="qcurve" smooth="yes"/>
      <point x="354.426" y="510"/>
      <point x="405.599" y="492"/>
      <point x="433.985" y="475"/>
      <point x="434.772" y="474" type="qcurve"/>
    </contour>
    <contour>
      <point x="202" y="0" type="move" name="bottom"/>
    </contour>
    <contour>
      <point x="317.843" y="545" type="move" name="top"/>
    </contour>
  </outline>
</glyph>
<glyph name="t" format="1">
  <advance width="238"/>
  <unicode hex="0074"/>
    <anchor name="bottom" x="119" y="0"/>
    <anchor name="top" x="275.229" y="735"/>
  <outline>
    <contour>
      <point x="87.0632" y="132" type="line" smooth="yes"/>
      <point x="75.3702" y="77"/>
      <point x="105.465" y="21"/>
      <point x="151.85" y="4" type="qcurve"/>
      <point x="141.236" y="-13" type="line"/>
      <point x="89.6378" y="3"/>
      <point x="54.5198" y="73"/>
      <point x="67.0632" y="132" type="qcurve" smooth="yes"/>
      <point x="187.395" y="698" type="line"/>
      <point x="207.395" y="698" type="line"/>
      <point x="165.087" y="499" type="line"/>
      <point x="321.087" y="499" type="line"/>
      <point x="308.261" y="481" type="line"/>
      <point x="161.261" y="481" type="line"/>
    </contour>
    <contour>
      <point x="119" y="0" type="move" name="bottom"/>
    </contour>
    <contour>
      <point x="275.229" y="735" type="move" name="top"/>
    </contour>
  </outline>
</glyph>
<glyph name="braceright" format="1">
  <advance width="238"/>
  <unicode hex="007D"/>
  <outline>
    <contour>
      <point x="194.296" y="820" type="line"/>
      <point x="196.084" y="819"/>
      <point x="225.895" y="804"/>
      <point x="259.181" y="763"/>
      <point x="275.239" y="688"/>
      <point x="262.485" y="628" type="qcurve" smooth="yes"/>
      <point x="238.467" y="515" type="line" smooth="yes"/>
      <point x="232.515" y="487"/>
      <point x="229.25" y="434"/>
      <point x="247.622" y="384"/>
      <point x="274.52" y="360" type="qcurve" smooth="yes"/>
      <point x="283.82" y="352" type="line"/>
      <point x="271.119" y="344" type="line" smooth="yes"/>
      <point x="234.018" y="320"/>
      <point x="194.178" y="269"/>
      <point x="175.125" y="217"/>
      <point x="169.173" y="189" type="qcurve" smooth="yes"/>
      <point x="145.154" y="76" type="line" smooth="yes"/>
      <point x="132.401" y="16"/>
      <point x="84.2466" y="-60"/>
      <point x="32.5317" y="-101"/>
      <point x="-3.86916" y="-117"/>
      <point x="-5.86916" y="-117" type="qcurve"/>
      <point x="-5.83056" y="-98" type="line"/>
      <point x="-3.83056" y="-98"/>
      <point x="28.3578" y="-83"/>
      <point x="74.0098" y="-47"/>
      <point x="116.676" y="22"/>
      <point x="128.154" y="76" type="qcurve" smooth="yes"/>
      <point x="152.173" y="189" type="line" smooth="yes"/>
      <point x="158.125" y="217"/>
      <point x="177.815" y="272"/>
      <point x="218.293" y="326"/>
      <point x="253.82" y="352" type="qcurve"/>
      <point x="229.346" y="378"/>
      <point x="211.824" y="432"/>
      <point x="215.515" y="487"/>
      <point x="221.467" y="515" type="qcurve" smooth="yes"/>
      <point x="245.485" y="628" type="line" smooth="yes"/>
      <point x="256.964" y="682"/>
      <point x="243.417" y="750"/>
      <point x="213.282" y="787"/>
      <point x="187.258" y="801"/>
      <point x="185.258" y="801" type="qcurve"/>
    </contour>
  </outline>
</glyph>
<glyph name="asciitilde" format="1">
  <advance width="266"/>
  <unicode hex="007E"/>
  <outline>
    <contour>
      <point x="343.255" y="307" type="line"/>
      <point x="321.854" y="291"/>
      <point x="284.091" y="278"/>
      <point x="267.091" y="278" type="qcurve" smooth="yes"/>
      <point x="241.091" y="278"/>
      <point x="195.129" y="297"/>
      <point x="152.38" y="317"/>
      <point x="130.38" y="317" type="qcurve" smooth="yes"/>
      <point x="115.38" y="317"/>
      <point x="80.6172" y="304"/>
      <point x="60.0037" y="287" type="qcurve"/>
      <point x="52.6172" y="304" type="line"/>
      <point x="76.6558" y="323"/>
      <point x="117.632" y="337"/>
      <point x="136.632" y="337" type="qcurve" smooth="yes"/>
      <point x="161.632" y="337"/>
      <point x="204.593" y="318"/>
      <point x="245.342" y="298"/>
      <point x="267.129" y="297" type="qcurve" smooth="yes"/>
      <point x="282.917" y="296"/>
      <point x="317.255" y="307"/>
      <point x="336.443" y="322" type="qcurve"/>
    </contour>
  </outline>
</glyph>
<glyph name="sterling" format="1">
  <advance width="424"/>
  <unicode hex="00A3"/>
  <outline>
    <contour>
      <point x="139.401" y="16" type="line" smooth="yes"/>
      <point x="167.401" y="16"/>
      <point x="228.377" y="30"/>
      <point x="284.029" y="66"/>
      <point x="304.618" y="97" type="qcurve" smooth="yes"/>
      <point x="326.845" y="131"/>
      <point x="338.362" y="204"/>
      <point x="318.516" y="280"/>
      <point x="293.168" y="316" type="qcurve" smooth="yes"/>
      <point x="285.719" y="328"/>
      <point x="264.308" y="359"/>
      <point x="253.709" y="375" type="qcurve"/>
      <point x="112.709" y="375" type="line"/>
      <point x="117.172" y="396" type="line"/>
      <point x="239.172" y="396" type="line"/>
      <point x="237.81" y="399"/>
      <point x="232.085" y="405"/>
      <point x="230.723" y="408" type="qcurve" smooth="yes"/>
      <point x="207.375" y="444"/>
      <point x="178.467" y="515"/>
      <point x="182.983" y="588"/>
      <point x="210.273" y="627" type="qcurve" smooth="yes"/>
      <point x="227.799" y="653"/>
      <point x="271.814" y="686"/>
      <point x="321.427" y="703"/>
      <point x="345.852" y="705" type="qcurve"/>
      <point x="384.915" y="710"/>
      <point x="466.239" y="688"/>
      <point x="499.775" y="667" type="qcurve"/>
      <point x="490.162" y="650" type="line"/>
      <point x="462.2" y="669"/>
      <point x="390.877" y="691"/>
      <point x="349.452" y="689" type="qcurve" smooth="yes"/>
      <point x="318.026" y="687"/>
      <point x="245.587" y="652"/>
      <point x="223.147" y="617" type="qcurve" smooth="yes"/>
      <point x="197.22" y="575"/>
      <point x="203.515" y="487"/>
      <point x="249.274" y="420" type="qcurve"/>
      <point x="253.424" y="416"/>
      <point x="259.66" y="403"/>
      <point x="265.172" y="396" type="qcurve"/>
      <point x="475.172" y="396" type="line"/>
      <point x="470.709" y="375" type="line"/>
      <point x="279.709" y="375" type="line"/>
      <point x="288.158" y="363"/>
      <point x="303.269" y="340"/>
      <point x="310.931" y="329" type="qcurve" smooth="yes"/>
      <point x="350.603" y="271"/>
      <point x="361.246" y="147"/>
      <point x="319.28" y="86" type="qcurve" smooth="yes"/>
      <point x="301.753" y="60"/>
      <point x="253.527" y="26"/>
      <point x="227.401" y="16" type="qcurve"/>
      <point x="394.401" y="16" type="line"/>
      <point x="391" y="0" type="line"/>
      <point x="33" y="0" type="line"/>
      <point x="36.4009" y="16" type="line"/>
    </contour>
  </outline>
</glyph>
<glyph name="currency" format="1">
  <advance width="443"/>
  <unicode hex="00A4"/>
  <outline>
    <contour>
      <point x="409.346" y="378" type="line"/>
      <point x="422.308" y="359"/>
      <point x="430.893" y="310"/>
      <point x="425.154" y="283" type="qcurve" smooth="yes"/>
      <point x="419.202" y="255"/>
      <point x="389.787" y="206"/>
      <point x="368.536" y="186" type="qcurve"/>
      <point x="432.531" y="106" type="line"/>
      <point x="416.555" y="92" type="line"/>
      <point x="351.772" y="173" type="line"/>
      <point x="329.371" y="157"/>
      <point x="277.12" y="137"/>
      <point x="250.12" y="137" type="qcurve" smooth="yes"/>
      <point x="222.12" y="137"/>
      <point x="177.371" y="157"/>
      <point x="160.772" y="173" type="qcurve"/>
      <point x="63.5552" y="92" type="line"/>
      <point x="53.531" y="106" type="line"/>
      <point x="150.536" y="186" type="line"/>
      <point x="138.787" y="206"/>
      <point x="130.202" y="255"/>
      <point x="136.154" y="283" type="qcurve" smooth="yes"/>
      <point x="141.893" y="310"/>
      <point x="171.308" y="359"/>
      <point x="191.346" y="378" type="qcurve"/>
      <point x="128.563" y="459" type="line"/>
      <point x="144.327" y="472" type="line"/>
      <point x="207.322" y="392" type="line"/>
      <point x="253.974" y="428"/>
      <point x="311.974" y="428" type="qcurve" smooth="yes"/>
      <point x="338.974" y="428"/>
      <point x="384.936" y="409"/>
      <point x="400.322" y="392" type="qcurve"/>
      <point x="497.327" y="472" type="line"/>
      <point x="507.563" y="459" type="line"/>
    </contour>
    <contour>
      <point x="254.371" y="157" type="qcurve" smooth="yes"/>
      <point x="288.371" y="157"/>
      <point x="351.598" y="191"/>
      <point x="397.714" y="248"/>
      <point x="405.154" y="283" type="qcurve" smooth="yes"/>
      <point x="412.38" y="317"/>
      <point x="390.284" y="373"/>
      <point x="341.511" y="407"/>
      <point x="307.511" y="407" type="qcurve" smooth="yes"/>
      <point x="273.511" y="407"/>
      <point x="208.284" y="373"/>
      <point x="162.38" y="317"/>
      <point x="155.154" y="283" type="qcurve" smooth="yes"/>
      <point x="147.714" y="248"/>
      <point x="169.598" y="191"/>
      <point x="220.371" y="157"/>
    </contour>
  </outline>
</glyph>
<glyph name="yen" format="1">
  <advance width="514"/>
  <unicode hex="00A5"/>
  <outline>
    <contour>
      <point x="143.125" y="217" type="line"/>
      <point x="146.951" y="235" type="line"/>
      <point x="296.951" y="235" type="line"/>
      <point x="319.482" y="341" type="line"/>
      <point x="169.364" y="698" type="line"/>
      <point x="192.364" y="698" type="line"/>
      <point x="332.733" y="361" type="line"/>
      <point x="617.364" y="698" type="line"/>
      <point x="640.364" y="698" type="line"/>
      <point x="336.482" y="341" type="line"/>
      <point x="313.951" y="235" type="line"/>
      <point x="465.951" y="235" type="line"/>
      <point x="462.125" y="217" type="line"/>
      <point x="310.125" y="217" type="line"/>
      <point x="291.845" y="131" type="line"/>
      <point x="443.845" y="131" type="line"/>
      <point x="439.594" y="111" type="line"/>
      <point x="287.594" y="111" type="line"/>
      <point x="264" y="0" type="line"/>
      <point x="247" y="0" type="line"/>
      <point x="270.594" y="111" type="line"/>
      <point x="120.594" y="111" type="line"/>
      <point x="124.845" y="131" type="line"/>
      <point x="274.845" y="131" type="line"/>
      <point x="293.125" y="217" type="line"/>
    </contour>
  </outline>
</glyph>
<glyph name="copyright" format="1">
  <advance width="693"/>
  <unicode hex="00A9"/>
  <outline>
    <contour>
      <point x="701.598" y="191" type="line" smooth="yes"/>
      <point x="683.531" y="106"/>
      <point x="578.087" y="-9"/>
      <point x="422.759" y="-67"/>
      <point x="330.546" y="-68" type="qcurve"/>
      <point x="239.759" y="-67"/>
      <point x="109.087" y="-9"/>
      <point x="52.531" y="106"/>
      <point x="70.5983" y="191" type="qcurve" smooth="yes"/>
      <point x="97.8056" y="319" type="line" smooth="yes"/>
      <point x="116.085" y="405"/>
      <point x="221.317" y="519"/>
      <point x="376.858" y="578"/>
      <point x="468.07" y="579" type="qcurve"/>
      <point x="559.858" y="578"/>
      <point x="690.317" y="519"/>
      <point x="747.085" y="405"/>
      <point x="728.806" y="319" type="qcurve" smooth="yes"/>
    </contour>
    <contour>
      <point x="711.168" y="316" type="line" smooth="yes"/>
      <point x="728.385" y="397"/>
      <point x="674.554" y="506"/>
      <point x="551.244" y="561"/>
      <point x="464.244" y="561" type="qcurve" smooth="yes"/>
      <point x="377.244" y="561"/>
      <point x="230.554" y="506"/>
      <point x="130.385" y="397"/>
      <point x="113.168" y="316" type="qcurve" smooth="yes"/>
      <point x="87.236" y="194" type="line" smooth="yes"/>
      <point x="70.2314" y="114"/>
      <point x="123.85" y="4"/>
      <point x="247.16" y="-51"/>
      <point x="333.947" y="-52" type="qcurve"/>
      <point x="421.16" y="-51"/>
      <point x="567.85" y="4"/>
      <point x="668.231" y="114"/>
      <point x="685.236" y="194" type="qcurve" smooth="yes"/>
    </contour>
    <contour>
      <point x="577.873" y="404" type="line"/>
      <point x="557.211" y="415"/>
      <point x="514.974" y="428"/>
      <point x="475.462" y="435"/>
      <point x="454.462" y="435" type="qcurve" smooth="yes"/>
      <point x="408.462" y="435"/>
      <point x="335.723" y="408"/>
      <point x="313.472" y="388" type="qcurve"/>
      <point x="290.646" y="370"/>
      <point x="249.98" y="301"/>
      <point x="239.989" y="254" type="qcurve" smooth="yes"/>
      <point x="227.236" y="194"/>
      <point x="250.294" y="119"/>
      <point x="277.043" y="99" type="qcurve"/>
      <point x="298.067" y="85"/>
      <point x="356.942" y="75"/>
      <point x="385.942" y="75" type="qcurve" smooth="yes"/>
      <point x="399.942" y="75"/>
      <point x="434.792" y="79"/>
      <point x="474.705" y="88"/>
      <point x="518.256" y="100"/>
      <point x="542.169" y="109" type="qcurve"/>
      <point x="544.13" y="90" type="line"/>
      <point x="498.729" y="74"/>
      <point x="414.328" y="58"/>
      <point x="375.328" y="58" type="qcurve" smooth="yes"/>
      <point x="359.328" y="58"/>
      <point x="296.604" y="64"/>
      <point x="263.43" y="82" type="qcurve"/>
      <point x="231.893" y="103"/>
      <point x="204.536" y="186"/>
      <point x="217.927" y="249" type="qcurve" smooth="yes"/>
      <point x="234.081" y="325"/>
      <point x="294.448" y="402"/>
      <point x="342.974" y="428" type="qcurve" smooth="yes"/>
      <point x="366.95" y="442"/>
      <point x="423.288" y="453"/>
      <point x="454.288" y="453" type="qcurve" smooth="yes"/>
      <point x="495.288" y="453"/>
      <point x="561.887" y="437"/>
      <point x="589.274" y="420" type="qcurve"/>
    </contour>
  </outline>
</glyph>
<glyph name="acute" format="1">
  <advance width="266"/>
  <unicode hex="00B4"/>
  <outline>
    <contour>
      <point x="344.814" y="686" type="qcurve" smooth="yes"/>
      <point x="267.558" y="586" type="line"/>
      <point x="246.558" y="586" type="line"/>
      <point x="323.002" y="701" type="line"/>
      <point x="326.49" y="708"/>
      <point x="340.553" y="713"/>
      <point x="345.915" y="710" type="qcurve" smooth="yes"/>
      <point x="352.065" y="706"/>
      <point x="350.089" y="692"/>
    </contour>
  </outline>
</glyph>
<glyph name="mu" format="1">
  <advance width="460"/>
  <unicode hex="00B5"/>
  <outline>
    <contour>
      <point x="422.882" y="70" type="line" smooth="yes"/>
      <point x="419.906" y="56"/>
      <point x="418.441" y="35"/>
      <point x="424.827" y="18"/>
      <point x="432.126" y="10" type="qcurve"/>
      <point x="418.575" y="-2" type="line"/>
      <point x="418.575" y="-2"/>
      <point x="406.126" y="10"/>
      <point x="396.866" y="37"/>
      <point x="401.543" y="59" type="qcurve"/>
      <point x="386.079" y="38"/>
      <point x="339.276" y="6"/>
      <point x="278.661" y="-11"/>
      <point x="243.661" y="-11" type="qcurve" smooth="yes"/>
      <point x="207.661" y="-11"/>
      <point x="147.488" y="7"/>
      <point x="94.7166" y="41"/>
      <point x="70.819" y="65" type="qcurve"/>
      <point x="14.0548" y="-202" type="line"/>
      <point x="-3.52" y="-200" type="line"/>
      <point x="145.087" y="499" type="line"/>
      <point x="163.087" y="499" type="line"/>
      <point x="76.134" y="90" type="line"/>
      <point x="78.2836" y="86"/>
      <point x="100.543" y="59"/>
      <point x="142.953" y="28"/>
      <point x="205.063" y="5"/>
      <point x="247.063" y="5" type="qcurve" smooth="yes"/>
      <point x="315.063" y="5"/>
      <point x="404.732" y="74"/>
      <point x="417.701" y="135" type="qcurve" smooth="yes"/>
      <point x="496.363" y="505" type="line"/>
      <point x="516.001" y="508" type="line"/>
    </contour>
  </outline>
</glyph>
<glyph name="paragraph" format="1">
  <advance width="603"/>
  <unicode hex="00B6"/>
  <outline>
    <contour>
      <point x="278.941" y="282" type="line" smooth="yes"/>
      <point x="228.941" y="282"/>
      <point x="162.68" y="309"/>
      <point x="128.158" y="363"/>
      <point x="122.95" y="442"/>
      <point x="133.79" y="493" type="qcurve" smooth="yes"/>
      <point x="144.206" y="542"/>
      <point x="182.573" y="619"/>
      <point x="238.838" y="672"/>
      <point x="313.79" y="700"/>
      <point x="360.79" y="700" type="qcurve" smooth="yes"/>
      <point x="708.79" y="700" type="line"/>
      <point x="560.213" y="1" type="line"/>
      <point x="540.213" y="1" type="line"/>
      <point x="684.326" y="679" type="line"/>
      <point x="605.751" y="681" type="line"/>
      <point x="461.213" y="1" type="line"/>
      <point x="442.213" y="1" type="line"/>
      <point x="501.941" y="282" type="line"/>
    </contour>
    <contour>
      <point x="355.538" y="680" type="line" smooth="yes"/>
      <point x="298.538" y="680"/>
      <point x="216.186" y="636"/>
      <point x="164.544" y="553"/>
      <point x="151.79" y="493" type="qcurve" smooth="yes"/>
      <point x="138.824" y="432"/>
      <point x="156.332" y="345"/>
      <point x="223.767" y="300"/>
      <point x="284.767" y="300" type="qcurve" smooth="yes"/>
      <point x="505.767" y="300" type="line"/>
      <point x="586.538" y="680" type="line"/>
    </contour>
  </outline>
</glyph>
<glyph name="cedilla" format="1">
  <advance width="266"/>
  <unicode hex="00B8"/>
  <outline>
    <contour>
      <point x="150" y="0" type="line"/>
      <point x="113.22" y="-46" type="line"/>
      <point x="130.22" y="-46"/>
      <point x="143.22" y="-46"/>
      <point x="147.22" y="-46" type="qcurve" smooth="yes"/>
      <point x="173.22" y="-46"/>
      <point x="209.118" y="-70"/>
      <point x="224.401" y="-111"/>
      <point x="219.086" y="-136" type="qcurve" smooth="yes"/>
      <point x="209.307" y="-182"/>
      <point x="142.378" y="-224"/>
      <point x="109.952" y="-226" type="qcurve"/>
      <point x="87.9524" y="-226"/>
      <point x="55.5902" y="-223"/>
      <point x="27.8658" y="-217"/>
      <point x="11.7162" y="-213" type="qcurve"/>
      <point x="13.5666" y="-209"/>
      <point x="16.417" y="-205"/>
      <point x="19.48" y="-200"/>
      <point x="21.3304" y="-196" type="qcurve"/>
      <point x="21.3304" y="-196"/>
      <point x="45.8422" y="-203"/>
      <point x="87.7792" y="-208"/>
      <point x="112.992" y="-207" type="qcurve" smooth="yes"/>
      <point x="122.204" y="-206"/>
      <point x="158.118" y="-197"/>
      <point x="193.496" y="-167"/>
      <point x="200.086" y="-136" type="qcurve" smooth="yes"/>
      <point x="206.464" y="-106"/>
      <point x="174.756" y="-67"/>
      <point x="142.756" y="-67" type="qcurve" smooth="yes"/>
      <point x="130.756" y="-67"/>
      <point x="101.756" y="-67"/>
      <point x="85.7558" y="-67" type="qcurve"/>
      <point x="90.2204" y="-46" type="line"/>
      <point x="129" y="0" type="line"/>
    </contour>
  </outline>
</glyph>
<glyph name="AE" format="1">
  <advance width="742"/>
  <unicode hex="00C6"/>
  <outline>
    <contour>
      <point x="382" y="0" type="line"/>
      <point x="441.303" y="279" type="line"/>
      <point x="208.303" y="279" type="line"/>
      <point x="41" y="0" type="line"/>
      <point x="19" y="0" type="line"/>
      <point x="438.364" y="698" type="line"/>
      <point x="862.364" y="698" type="line"/>
      <point x="858.113" y="678" type="line"/>
      <point x="546.113" y="678" type="line"/>
      <point x="489.786" y="413" type="line"/>
      <point x="717.786" y="413" type="line"/>
      <point x="705.535" y="393" type="line"/>
      <point x="485.535" y="393" type="line"/>
      <point x="406.251" y="20" type="line"/>
      <point x="718.251" y="20" type="line"/>
      <point x="714" y="0" type="line"/>
    </contour>
    <contour>
      <point x="219.554" y="299" type="line"/>
      <point x="445.554" y="299" type="line"/>
      <point x="526.113" y="678" type="line"/>
      <point x="446.113" y="678" type="line"/>
    </contour>
  </outline>
</glyph>
<glyph name="eth" format="1">
  <advance width="418"/>
  <unicode hex="00F0"/>
  <outline>
    <contour>
      <point x="326.814" y="686" type="qcurve"/>
      <point x="332.577" y="699" type="line"/>
      <point x="428.814" y="686"/>
      <point x="510.819" y="559"/>
      <point x="491.689" y="469" type="qcurve" smooth="yes"/>
      <point x="431.748" y="187" type="line" smooth="yes"/>
      <point x="411.555" y="92"/>
      <point x="293.087" y="-9"/>
      <point x="204.087" y="-9" type="qcurve" smooth="yes"/>
      <point x="115.087" y="-9"/>
      <point x="43.4054" y="96"/>
      <point x="62.7481" y="187" type="qcurve" smooth="yes"/>
      <point x="75.0764" y="245" type="line" smooth="yes"/>
      <point x="94.6316" y="337"/>
      <point x="207.037" y="433"/>
      <point x="290.037" y="433" type="qcurve" smooth="yes"/>
      <point x="321.037" y="433"/>
      <point x="388.148" y="410"/>
      <point x="439.221" y="368"/>
      <point x="444.057" y="339" type="qcurve"/>
      <point x="471.689" y="469" type="line" smooth="yes"/>
      <point x="484.442" y="529"/>
      <point x="461.66" y="610"/>
      <point x="409.862" y="658"/>
      <point x="349.964" y="682"/>
    </contour>
    <contour>
      <point x="96.3517" y="251" type="qcurve" smooth="yes"/>
      <point x="81.6853" y="182" type="line" smooth="yes"/>
      <point x="63.618" y="97"/>
      <point x="136.338" y="11"/>
      <point x="208.338" y="11" type="qcurve" smooth="yes"/>
      <point x="279.338" y="11"/>
      <point x="391.343" y="91"/>
      <point x="410.685" y="182" type="qcurve" smooth="yes"/>
      <point x="430.028" y="273" type="line" smooth="yes"/>
      <point x="440.443" y="322"/>
      <point x="394.259" y="387"/>
      <point x="312.061" y="419"/>
      <point x="267.424" y="416" type="qcurve" smooth="yes"/>
      <point x="201.573" y="412"/>
      <point x="112.506" y="327"/>
    </contour>
    <contour>
      <point x="514.664" y="690" type="line"/>
      <point x="304.254" y="514" type="line"/>
      <point x="296.38" y="524" type="line"/>
      <point x="506.79" y="700" type="line"/>
    </contour>
  </outline>
</glyph>
<glyph name="ij" format="1">
  <advance width="459"/>
  <unicode hex="0133"/>
  <outline>
    <contour>
      <point x="207.49" y="708" type="qcurve" smooth="yes"/>
      <point x="214.49" y="708"/>
      <point x="222.577" y="699"/>
      <point x="220.877" y="691" type="qcurve" smooth="yes"/>
      <point x="219.389" y="684"/>
      <point x="207.263" y="674"/>
      <point x="200.263" y="674" type="qcurve" smooth="yes"/>
      <point x="193.263" y="674"/>
      <point x="185.389" y="684"/>
      <point x="186.877" y="691" type="qcurve" smooth="yes"/>
      <point x="188.577" y="699"/>
      <point x="200.49" y="708"/>
    </contour>
    <contour>
      <point x="569.877" y="691" type="qcurve" smooth="yes"/>
      <point x="568.389" y="684"/>
      <point x="557.263" y="674"/>
      <point x="549.263" y="674" type="qcurve" smooth="yes"/>
      <point x="542.263" y="674"/>
      <point x="535.389" y="684"/>
      <point x="536.877" y="691" type="qcurve" smooth="yes"/>
      <point x="538.577" y="699"/>
      <point x="549.278" y="707"/>
      <point x="556.278" y="707" type="qcurve" smooth="yes"/>
      <point x="564.278" y="707"/>
      <point x="571.577" y="699"/>
    </contour>
    <contour>
      <point x="504.066" y="499" type="line"/>
      <point x="521.066" y="499" type="line"/>
      <point x="400.759" y="-67" type="line" smooth="yes"/>
      <point x="393.319" y="-102"/>
      <point x="366.054" y="-155"/>
      <point x="343.015" y="-174" type="qcurve" smooth="yes"/>
      <point x="327.464" y="-186"/>
      <point x="289.638" y="-204"/>
      <point x="264.938" y="-212" type="qcurve"/>
      <point x="262.552" y="-195" type="line"/>
      <point x="287.465" y="-186"/>
      <point x="312.228" y="-173"/>
      <point x="331.991" y="-160" type="qcurve" smooth="yes"/>
      <point x="369.73" y="-133"/>
      <point x="383.971" y="-66" type="qcurve" smooth="yes"/>
      <point x="419.043" y="99" type="line"/>
      <point x="388.99" y="47"/>
      <point x="287.15" y="-4"/>
      <point x="239.3" y="-8" type="qcurve"/>
      <point x="211.087" y="-9"/>
      <point x="145.575" y="-2"/>
      <point x="91.5893" y="31"/>
      <point x="67.0431" y="99"/>
      <point x="79.3714" y="157" type="qcurve" smooth="yes"/>
      <point x="152.066" y="499" type="line"/>
      <point x="172.066" y="499" type="line"/>
      <point x="99.1589" y="156" type="line" smooth="yes"/>
      <point x="87.2557" y="100"/>
      <point x="115.014" y="33"/>
      <point x="188.275" y="6"/>
      <point x="242.126" y="10" type="qcurve" smooth="yes"/>
      <point x="290.763" y="13"/>
      <point x="371.328" y="58"/>
      <point x="425.42" y="129"/>
      <point x="433.922" y="169" type="qcurve" smooth="yes"/>
    </contour>
  </outline>
</glyph>
<glyph name="oe" format="1">
  <advance width="772"/>
  <unicode hex="0153"/>
  <outline>
    <contour>
      <point x="430.057" y="132" type="line" smooth="yes"/>
      <point x="423.043" y="99"/>
      <point x="433.84" y="51"/>
      <point x="452.439" y="35" type="qcurve" smooth="yes"/>
      <point x="472.039" y="19"/>
      <point x="522.488" y="7"/>
      <point x="556.488" y="7" type="qcurve" smooth="yes"/>
      <point x="597.488" y="7"/>
      <point x="671.952" y="28"/>
      <point x="720.053" y="52" type="qcurve"/>
      <point x="725.439" y="35" type="line"/>
      <point x="682.551" y="12"/>
      <point x="596.449" y="-12"/>
      <point x="554.449" y="-12" type="qcurve" smooth="yes"/>
      <point x="528.449" y="-12"/>
      <point x="484.937" y="-5"/>
      <point x="451.913" y="9"/>
      <point x="439.039" y="19" type="qcurve" smooth="yes"/>
      <point x="421.014" y="33"/>
      <point x="405.154" y="76"/>
      <point x="406.318" y="105" type="qcurve"/>
      <point x="379.265" y="53"/>
      <point x="279.874" y="-10"/>
      <point x="211.874" y="-10" type="qcurve" smooth="yes"/>
      <point x="147.874" y="-10"/>
      <point x="75.9273" y="42"/>
      <point x="54.8449" y="131"/>
      <point x="66.1104" y="184" type="qcurve" smooth="yes"/>
      <point x="93.9553" y="315" type="line" smooth="yes"/>
      <point x="114.148" y="410"/>
      <point x="233.404" y="510"/>
      <point x="322.404" y="510" type="qcurve" smooth="yes"/>
      <point x="392.404" y="510"/>
      <point x="466.163" y="443"/>
      <point x="469.622" y="384" type="qcurve"/>
      <point x="479.723" y="408"/>
      <point x="513.225" y="448"/>
      <point x="532.414" y="463" type="qcurve" smooth="yes"/>
      <point x="589.979" y="508"/>
      <point x="674.979" y="508" type="qcurve" smooth="yes"/>
      <point x="745.979" y="508"/>
      <point x="783.177" y="476" type="qcurve" smooth="yes"/>
      <point x="807.713" y="455"/>
      <point x="825.259" y="387"/>
      <point x="815.482" y="341" type="qcurve" smooth="yes"/>
      <point x="795.289" y="246" type="line"/>
      <point x="450.675" y="229" type="line"/>
    </contour>
    <contour>
      <point x="444.806" y="319" type="line" smooth="yes"/>
      <point x="463.085" y="405"/>
      <point x="389.578" y="492"/>
      <point x="318.578" y="492" type="qcurve" smooth="yes"/>
      <point x="246.578" y="492"/>
      <point x="134.361" y="411"/>
      <point x="114.806" y="319" type="qcurve" smooth="yes"/>
      <point x="86.1104" y="184" type="line" smooth="yes"/>
      <point x="75.6951" y="135"/>
      <point x="95.6906" y="55"/>
      <point x="160.7" y="8"/>
      <point x="215.7" y="8" type="qcurve" smooth="yes"/>
      <point x="272.7" y="8"/>
      <point x="354.478" y="54"/>
      <point x="405.483" y="134"/>
      <point x="416.11" y="184" type="qcurve" smooth="yes"/>
    </contour>
    <contour>
      <point x="795.694" y="342" type="line" smooth="yes"/>
      <point x="805.259" y="387"/>
      <point x="787.588" y="445"/>
      <point x="767.989" y="461" type="qcurve" smooth="yes"/>
      <point x="748.602" y="478"/>
      <point x="695.365" y="491"/>
      <point x="668.365" y="491" type="qcurve" smooth="yes"/>
      <point x="640.365" y="491"/>
      <point x="572.964" y="475"/>
      <point x="543.076" y="452" type="qcurve" smooth="yes"/>
      <point x="520.25" y="434"/>
      <point x="481.921" y="376"/>
      <point x="472.569" y="332" type="qcurve" smooth="yes"/>
      <point x="454.714" y="248" type="line"/>
      <point x="779.115" y="264" type="line"/>
    </contour>
  </outline>
</glyph>
<glyph name="dotlessj" format="1">
  <advance width="169"/>
  <unicode hex="0237"/>
    <anchor name="top" x="240.229" y="735"/>
  <outline>
    <contour>
      <point x="115.55" y="-68" type="line" smooth="yes"/>
      <point x="107.9" y="-104"/>
      <point x="79.85" y="-156"/>
      <point x="57.8125" y="-175" type="qcurve" smooth="yes"/>
      <point x="42.2625" y="-187"/>
      <point x="3.225" y="-206"/>
      <point x="-21.2625" y="-213" type="qcurve"/>
      <point x="-23.65" y="-196" type="line"/>
      <point x="1.2625" y="-187"/>
      <point x="27.025" y="-174"/>
      <point x="46.7875" y="-161" type="qcurve" smooth="yes"/>
      <point x="84.525" y="-134"/>
      <point x="98.7625" y="-67" type="qcurve" smooth="yes"/>
      <point x="215.213" y="481" type="line"/>
      <point x="130.213" y="481" type="line"/>
      <point x="134.038" y="499" type="line"/>
      <point x="236.038" y="499" type="line"/>
    </contour>
    <contour>
      <point x="240.229" y="735" type="move" name="top"/>
    </contour>
  </outline>
</glyph>
<glyph name="hungarumlaut" format="1">
  <advance width="266"/>
  <unicode hex="02DD"/>
  <outline>
    <contour>
      <point x="286.964" y="682" type="qcurve" smooth="yes"/>
      <point x="210.708" y="582" type="line"/>
      <point x="189.708" y="582" type="line"/>
      <point x="263.939" y="696" type="line" smooth="yes"/>
      <point x="268.427" y="703"/>
      <point x="282.703" y="709"/>
      <point x="287.852" y="705" type="qcurve" smooth="yes"/>
      <point x="293.215" y="702"/>
      <point x="292.239" y="688"/>
    </contour>
    <contour>
      <point x="398.964" y="682" type="qcurve" smooth="yes"/>
      <point x="321.708" y="582" type="line"/>
      <point x="300.708" y="582" type="line"/>
      <point x="375.939" y="696" type="line" smooth="yes"/>
      <point x="380.427" y="703"/>
      <point x="394.703" y="709"/>
      <point x="398.852" y="705" type="qcurve"/>
      <point x="405.215" y="702"/>
      <point x="403.239" y="688"/>
    </contour>
  </outline>
</glyph>
<glyph name="tonos" format="1">
  <advance width="266"/>
  <unicode hex="0384"/>
  <outline>
    <contour>
      <point x="314.814" y="686" type="qcurve" smooth="yes"/>
      <point x="237.558" y="586" type="line"/>
      <point x="216.558" y="586" type="line"/>
      <point x="293.002" y="701" type="line"/>
      <point x="296.49" y="708"/>
      <point x="310.553" y="713"/>
      <point x="315.915" y="710" type="qcurve" smooth="yes"/>
      <point x="322.065" y="706"/>
      <point x="320.089" y="692"/>
    </contour>
  </outline>
</glyph>
<glyph name="Psi" format="1">
  <advance width="589"/>
  <unicode hex="03A8"/>
  <outline>
    <contour>
      <point x="137.085" y="405" type="line" smooth="yes"/>
      <point x="117.743" y="314"/>
      <point x="190.675" y="229"/>
      <point x="267.675" y="229" type="qcurve" smooth="yes"/>
      <point x="328.675" y="229" type="line"/>
      <point x="428.364" y="698" type="line"/>
      <point x="448.364" y="698" type="line"/>
      <point x="348.675" y="229" type="line"/>
      <point x="418.675" y="229" type="line" smooth="yes"/>
      <point x="501.675" y="229"/>
      <point x="607.231" y="321"/>
      <point x="625.085" y="405" type="qcurve" smooth="yes"/>
      <point x="665.896" y="597" type="line" smooth="yes"/>
      <point x="673.336" y="632"/>
      <point x="663.838" y="672"/>
      <point x="642.302" y="693"/>
      <point x="632.79" y="700" type="qcurve"/>
      <point x="651.277" y="707" type="line"/>
      <point x="655.852" y="705"/>
      <point x="678.176" y="683"/>
      <point x="691.399" y="637"/>
      <point x="683.109" y="598" type="qcurve" smooth="yes"/>
      <point x="642.085" y="405" type="line" smooth="yes"/>
      <point x="622.743" y="314"/>
      <point x="510.062" y="212"/>
      <point x="415.062" y="212" type="qcurve" smooth="yes"/>
      <point x="345.062" y="212" type="line"/>
      <point x="300" y="0" type="line"/>
      <point x="280" y="0" type="line"/>
      <point x="325.062" y="212" type="line"/>
      <point x="264.062" y="212" type="line" smooth="yes"/>
      <point x="170.062" y="212"/>
      <point x="97.7428" y="314"/>
      <point x="117.085" y="405" type="qcurve" smooth="yes"/>
      <point x="179.364" y="698" type="line"/>
      <point x="199.364" y="698" type="line"/>
    </contour>
  </outline>
</glyph>
<glyph name="Omegagreek" format="1">
  <advance width="579"/>
  <unicode hex="03A9"/>
    <anchor name="tonos" x="244.79" y="700"/>
  <outline>
    <contour>
      <point x="574.65" y="196" type="line" smooth="yes"/>
      <point x="561.263" y="133"/>
      <point x="476.2" y="48"/>
      <point x="402.25" y="20" type="qcurve"/>
      <point x="541.25" y="20" type="line"/>
      <point x="546" y="0" type="line"/>
      <point x="318" y="0" type="line"/>
      <point x="322.25" y="20" type="line"/>
      <point x="356.25" y="20"/>
      <point x="427.35" y="44"/>
      <point x="465.238" y="67" type="qcurve" smooth="yes"/>
      <point x="503.125" y="90"/>
      <point x="549.938" y="155"/>
      <point x="558.65" y="196" type="qcurve" smooth="yes"/>
      <point x="623.463" y="501" type="line" smooth="yes"/>
      <point x="643.65" y="596"/>
      <point x="568.775" y="686"/>
      <point x="491.775" y="686" type="qcurve" smooth="yes"/>
      <point x="379.775" y="686" type="line" smooth="yes"/>
      <point x="301.775" y="686"/>
      <point x="190.225" y="594"/>
      <point x="170.675" y="502" type="qcurve" smooth="yes"/>
      <point x="105.65" y="196" type="line" smooth="yes"/>
      <point x="96.9375" y="155"/>
      <point x="115.913" y="89"/>
      <point x="143.025" y="66" type="qcurve" smooth="yes"/>
      <point x="170.138" y="43"/>
      <point x="231.25" y="20"/>
      <point x="265.25" y="20" type="qcurve"/>
      <point x="261" y="0" type="line"/>
      <point x="33" y="0" type="line"/>
      <point x="44.25" y="20" type="line"/>
      <point x="183.25" y="20" type="line"/>
      <point x="139.288" y="39"/>
      <point x="92.3375" y="91"/>
      <point x="80.575" y="158"/>
      <point x="88.65" y="196" type="qcurve" smooth="yes"/>
      <point x="153.675" y="502" type="line" smooth="yes"/>
      <point x="173.225" y="594"/>
      <point x="289.813" y="705"/>
      <point x="383.813" y="705" type="qcurve" smooth="yes"/>
      <point x="495.813" y="705" type="line" smooth="yes"/>
      <point x="588.813" y="705"/>
      <point x="659.225" y="594"/>
      <point x="639.675" y="502" type="qcurve" smooth="yes"/>
    </contour>
    <contour>
      <point x="244.79" y="700" type="move" name="tonos"/>
    </contour>
  </outline>
</glyph>
<glyph name="alpha" format="1">
  <advance width="437"/>
  <unicode hex="03B1"/>
    <anchor name="tonos" x="333.843" y="545"/>
  <outline>
    <contour>
      <point x="504.09" y="485" type="line"/>
      <point x="504.09" y="485"/>
      <point x="489.438" y="449"/>
      <point x="486.037" y="433" type="qcurve" smooth="yes"/>
      <point x="394.85" y="4" type="line"/>
      <point x="394.85" y="4"/>
      <point x="357.425" y="2"/>
      <point x="298.575" y="-2"/>
      <point x="233.15" y="-4"/>
      <point x="205.15" y="-4" type="qcurve" smooth="yes"/>
      <point x="154.15" y="-4"/>
      <point x="91.8888" y="23"/>
      <point x="61.6664" y="69"/>
      <point x="56.7821" y="126"/>
      <point x="63.3714" y="157" type="qcurve" smooth="yes"/>
      <point x="105.032" y="353" type="line" smooth="yes"/>
      <point x="117.786" y="413"/>
      <point x="177.027" y="480"/>
      <point x="254.554" y="506"/>
      <point x="293.554" y="506" type="qcurve" smooth="yes"/>
      <point x="339.554" y="506"/>
      <point x="432.177" y="476"/>
      <point x="473.288" y="453" type="qcurve"/>
      <point x="478.051" y="466"/>
      <point x="488.728" y="488"/>
      <point x="488.728" y="488" type="qcurve"/>
    </contour>
    <contour>
      <point x="83.4342" y="162" type="line" smooth="yes"/>
      <point x="67.9175" y="89"/>
      <point x="129.976" y="14"/>
      <point x="208.976" y="14" type="qcurve" smooth="yes"/>
      <point x="234.976" y="14"/>
      <point x="294.401" y="16"/>
      <point x="347.251" y="20"/>
      <point x="379.676" y="22"/>
      <point x="379.676" y="22" type="qcurve"/>
      <point x="466.824" y="432" type="line"/>
      <point x="422.989" y="461"/>
      <point x="331.515" y="487"/>
      <point x="284.515" y="487" type="qcurve" smooth="yes"/>
      <point x="240.515" y="487"/>
      <point x="174.713" y="455"/>
      <point x="132.747" y="394"/>
      <point x="123.395" y="350" type="qcurve" smooth="yes"/>
    </contour>
    <contour>
      <point x="333.843" y="545" type="move" name="tonos"/>
    </contour>
  </outline>
</glyph>
<glyph name="epsilon" format="1">
  <advance width="392"/>
  <unicode hex="03B5"/>
    <anchor name="tonos" x="311.843" y="545"/>
  <outline>
    <contour>
      <point x="400.752" y="474" type="line"/>
      <point x="382.452" y="482"/>
      <point x="322.578" y="492"/>
      <point x="303.578" y="492" type="qcurve" smooth="yes"/>
      <point x="233.578" y="492"/>
      <point x="155.549" y="426"/>
      <point x="146.834" y="385" type="qcurve" smooth="yes"/>
      <point x="138.757" y="347"/>
      <point x="175.767" y="300"/>
      <point x="215.767" y="300" type="qcurve" smooth="yes"/>
      <point x="363.767" y="300" type="line"/>
      <point x="352.941" y="282" type="line"/>
      <point x="246.941" y="282" type="line" smooth="yes"/>
      <point x="198.941" y="282"/>
      <point x="128.501" y="247"/>
      <point x="84.7481" y="187"/>
      <point x="76.4584" y="148" type="qcurve" smooth="yes"/>
      <point x="63.4924" y="87"/>
      <point x="131.913" y="9"/>
      <point x="205.913" y="9" type="qcurve" smooth="yes"/>
      <point x="250.913" y="9"/>
      <point x="326.526" y="26"/>
      <point x="372.14" y="43"/>
      <point x="372.14" y="43" type="qcurve"/>
      <point x="374.889" y="23" type="line"/>
      <point x="342.551" y="12"/>
      <point x="248.662" y="-11"/>
      <point x="204.662" y="-11" type="qcurve" smooth="yes"/>
      <point x="136.662" y="-11"/>
      <point x="68.0772" y="38"/>
      <point x="50.0189" y="113"/>
      <point x="58.0961" y="151" type="qcurve" smooth="yes"/>
      <point x="69.3616" y="204"/>
      <point x="134.815" y="272"/>
      <point x="182.791" y="286" type="qcurve"/>
      <point x="153.279" y="293"/>
      <point x="127.506" y="327"/>
      <point x="124.433" y="369"/>
      <point x="127.834" y="385" type="qcurve" smooth="yes"/>
      <point x="134.424" y="416"/>
      <point x="179.539" y="473"/>
      <point x="254.191" y="509"/>
      <point x="305.191" y="509" type="qcurve" smooth="yes"/>
      <point x="330.191" y="509"/>
      <point x="380.703" y="502"/>
      <point x="405.216" y="495" type="qcurve"/>
    </contour>
    <contour>
      <point x="311.843" y="545" type="move" name="tonos"/>
    </contour>
  </outline>
</glyph>
<glyph name="zeta" format="1">
  <advance width="397"/>
  <unicode hex="03B6"/>
  <outline>
    <contour>
      <point x="516.113" y="678" type="line"/>
      <point x="476.587" y="652"/>
      <point x="403.896" y="597"/>
      <point x="339.206" y="542"/>
      <point x="310.254" y="514" type="qcurve" smooth="yes"/>
      <point x="274.027" y="480"/>
      <point x="211.361" y="411"/>
      <point x="186.346" y="378" type="qcurve" smooth="yes"/>
      <point x="146.868" y="324"/>
      <point x="94.6127" y="224"/>
      <point x="85.2602" y="180" type="qcurve" smooth="yes"/>
      <point x="77.3956" y="143"/>
      <point x="86.6422" y="83"/>
      <point x="105.178" y="62" type="qcurve" smooth="yes"/>
      <point x="124.29" y="39"/>
      <point x="193.188" y="15"/>
      <point x="295.251" y="20"/>
      <point x="362.077" y="38" type="qcurve"/>
      <point x="309.576" y="-209" type="line"/>
      <point x="291.701" y="-199" type="line"/>
      <point x="336.763" y="13" type="line"/>
      <point x="254.725" y="-6"/>
      <point x="119.338" y="11"/>
      <point x="85.6278" y="50" type="qcurve" smooth="yes"/>
      <point x="64.1543" y="76"/>
      <point x="54.6081" y="144"/>
      <point x="64.1104" y="184" type="qcurve" smooth="yes"/>
      <point x="75.4629" y="228"/>
      <point x="128.931" y="329"/>
      <point x="169.197" y="382" type="qcurve" smooth="yes"/>
      <point x="196.636" y="417"/>
      <point x="260.302" y="486"/>
      <point x="295.529" y="520" type="qcurve" smooth="yes"/>
      <point x="326.694" y="549"/>
      <point x="389.172" y="603"/>
      <point x="451.225" y="655"/>
      <point x="480.113" y="678" type="qcurve"/>
      <point x="238.113" y="678" type="line"/>
      <point x="242.364" y="698" type="line"/>
      <point x="514.364" y="698" type="line"/>
    </contour>
  </outline>
</glyph>
<glyph name="theta" format="1">
  <advance width="438"/>
  <unicode hex="03B8"/>
  <outline>
    <contour>
      <point x="361.277" y="707" type="qcurve" smooth="yes"/>
      <point x="456.277" y="707"/>
      <point x="528.896" y="597"/>
      <point x="508.703" y="502" type="qcurve" smooth="yes"/>
      <point x="441.961" y="188" type="line" smooth="yes"/>
      <point x="421.98" y="94"/>
      <point x="307.725" y="-6"/>
      <point x="215.725" y="-6" type="qcurve" smooth="yes"/>
      <point x="121.725" y="-6"/>
      <point x="51.0431" y="99"/>
      <point x="69.9606" y="188" type="qcurve" smooth="yes"/>
      <point x="96.3177" y="312" type="line" smooth="yes"/>
      <point x="107.158" y="363"/>
      <point x="160.974" y="428"/>
      <point x="193.225" y="448" type="qcurve"/>
      <point x="175.902" y="470"/>
      <point x="164.042" y="513"/>
      <point x="165.481" y="548"/>
      <point x="167.394" y="557" type="qcurve" smooth="yes"/>
      <point x="175.896" y="597"/>
      <point x="227.35" y="665"/>
      <point x="309.278" y="707"/>
    </contour>
    <contour>
      <point x="488.703" y="502" type="line" smooth="yes"/>
      <point x="507.408" y="590"/>
      <point x="439.664" y="690"/>
      <point x="357.664" y="690" type="qcurve" smooth="yes"/>
      <point x="314.664" y="690"/>
      <point x="243.225" y="655"/>
      <point x="195.471" y="595"/>
      <point x="187.819" y="559" type="qcurve" smooth="yes"/>
      <point x="182.505" y="534"/>
      <point x="192.665" y="483"/>
      <point x="228.312" y="439"/>
      <point x="295.085" y="405"/>
      <point x="394.834" y="385"/>
      <point x="463.834" y="385" type="qcurve"/>
    </contour>
    <contour>
      <point x="216.976" y="14" type="qcurve" smooth="yes"/>
      <point x="280.976" y="14"/>
      <point x="363.116" y="57"/>
      <point x="410.695" y="135"/>
      <point x="421.536" y="186" type="qcurve" smooth="yes"/>
      <point x="460.433" y="369" type="line"/>
      <point x="354.433" y="369"/>
      <point x="233.936" y="409"/>
      <point x="204.887" y="437" type="qcurve"/>
      <point x="172.849" y="418"/>
      <point x="122.458" y="355"/>
      <point x="113.105" y="311" type="qcurve" smooth="yes"/>
      <point x="86.323" y="185" type="line" smooth="yes"/>
      <point x="76.7579" y="140"/>
      <point x="91.1785" y="62"/>
      <point x="154.976" y="14"/>
    </contour>
  </outline>
</glyph>
<glyph name="sigma1" format="1">
  <advance width="335"/>
  <unicode hex="03C2"/>
  <outline>
    <contour>
      <point x="101.154" y="283" type="line" smooth="yes"/>
      <point x="93.2889" y="246"/>
      <point x="107.598" y="191"/>
      <point x="143.434" y="162" type="qcurve" smooth="yes"/>
      <point x="160.671" y="149"/>
      <point x="198.869" y="117"/>
      <point x="227.98" y="94" type="qcurve" smooth="yes"/>
      <point x="248.792" y="79"/>
      <point x="274.352" y="44"/>
      <point x="281.85" y="4"/>
      <point x="276.324" y="-22" type="qcurve" smooth="yes"/>
      <point x="270.16" y="-51"/>
      <point x="231.382" y="-97"/>
      <point x="184.155" y="-131"/>
      <point x="162.817" y="-142" type="qcurve"/>
      <point x="156.643" y="-124" type="line"/>
      <point x="176.981" y="-113"/>
      <point x="219.358" y="-83"/>
      <point x="251.435" y="-45"/>
      <point x="256.324" y="-22" type="qcurve" smooth="yes"/>
      <point x="262.913" y="9"/>
      <point x="240.116" y="57"/>
      <point x="213.367" y="77" type="qcurve" smooth="yes"/>
      <point x="183.468" y="101"/>
      <point x="146.27" y="133"/>
      <point x="128.821" y="145" type="qcurve"/>
      <point x="92.1974" y="175"/>
      <point x="71.801" y="239"/>
      <point x="81.1535" y="283" type="qcurve"/>
      <point x="81.1535" y="283"/>
      <point x="85.4046" y="303"/>
      <point x="91.5688" y="332"/>
      <point x="97.9455" y="362"/>
      <point x="102.622" y="384"/>
      <point x="102.834" y="385" type="qcurve"/>
      <point x="111.762" y="427"/>
      <point x="175.815" y="479"/>
      <point x="256.916" y="503"/>
      <point x="290.916" y="503" type="qcurve" smooth="yes"/>
      <point x="328.916" y="503"/>
      <point x="380.303" y="486"/>
      <point x="407.689" y="469"/>
      <point x="407.476" y="468" type="qcurve"/>
      <point x="394.288" y="453" type="line"/>
      <point x="394.288" y="453"/>
      <point x="368.689" y="469"/>
      <point x="321.09" y="485"/>
      <point x="287.09" y="485" type="qcurve" smooth="yes"/>
      <point x="257.09" y="485"/>
      <point x="185.626" y="464"/>
      <point x="129.849" y="418"/>
      <point x="122.197" y="382" type="qcurve" smooth="yes"/>
    </contour>
  </outline>
</glyph>
<glyph name="sigma" format="1">
  <advance width="425"/>
  <unicode hex="03C3"/>
  <outline>
    <contour>
      <point x="533.442" y="529" type="line"/>
      <point x="527.955" y="522"/>
      <point x="493.491" y="501"/>
      <point x="448.877" y="484"/>
      <point x="426.452" y="482" type="qcurve"/>
      <point x="458.926" y="456"/>
      <point x="475.772" y="380"/>
      <point x="462.806" y="319" type="qcurve" smooth="yes"/>
      <point x="434.11" y="184" type="line" smooth="yes"/>
      <point x="416.043" y="99"/>
      <point x="303.874" y="-10"/>
      <point x="210.874" y="-10" type="qcurve" smooth="yes"/>
      <point x="147.874" y="-10"/>
      <point x="75.9274" y="42"/>
      <point x="54.8449" y="131"/>
      <point x="66.1104" y="184" type="qcurve" smooth="yes"/>
      <point x="96.506" y="327" type="line" smooth="yes"/>
      <point x="110.747" y="394"/>
      <point x="180.752" y="474"/>
      <point x="272.404" y="510"/>
      <point x="316.404" y="510" type="qcurve" smooth="yes"/>
      <point x="352.404" y="510"/>
      <point x="423.853" y="498"/>
      <point x="440.703" y="502" type="qcurve"/>
      <point x="461.341" y="505"/>
      <point x="502.592" y="525"/>
      <point x="523.993" y="541" type="qcurve"/>
    </contour>
    <contour>
      <point x="443.806" y="319" type="line" smooth="yes"/>
      <point x="454.858" y="371"/>
      <point x="444.25" y="434"/>
      <point x="417.689" y="469"/>
      <point x="391.665" y="483"/>
      <point x="387.302" y="486" type="qcurve"/>
      <point x="372.153" y="490"/>
      <point x="332.003" y="494"/>
      <point x="311.79" y="493" type="qcurve" smooth="yes"/>
      <point x="267.578" y="492"/>
      <point x="186.926" y="456"/>
      <point x="127.984" y="381"/>
      <point x="115.656" y="323" type="qcurve" smooth="yes"/>
      <point x="86.1104" y="184" type="line" smooth="yes"/>
      <point x="75.6951" y="135"/>
      <point x="96.6906" y="55"/>
      <point x="161.7" y="8"/>
      <point x="216.7" y="8" type="qcurve" smooth="yes"/>
      <point x="273.7" y="8"/>
      <point x="354.478" y="54"/>
      <point x="404.483" y="134"/>
      <point x="415.11" y="184" type="qcurve" smooth="yes"/>
    </contour>
  </outline>
</glyph>
<glyph name="phi" format="1">
  <advance width="582"/>
  <unicode hex="03C6"/>
  <outline>
    <contour>
      <point x="94.5302" y="313" type="line" smooth="yes"/>
      <point x="110.685" y="389"/>
      <point x="188.665" y="483"/>
      <point x="250.703" y="502" type="qcurve"/>
      <point x="256.09" y="485" type="line"/>
      <point x="208.752" y="474"/>
      <point x="131.535" y="393"/>
      <point x="114.955" y="315" type="qcurve" smooth="yes"/>
      <point x="85.8351" y="178" type="line" smooth="yes"/>
      <point x="74.1445" y="123"/>
      <point x="101.203" y="48"/>
      <point x="169.126" y="10"/>
      <point x="219.126" y="10" type="qcurve" smooth="yes"/>
      <point x="283.126" y="10" type="line"/>
      <point x="366.448" y="402" type="line" smooth="yes"/>
      <point x="375.588" y="445"/>
      <point x="432.554" y="506"/>
      <point x="480.554" y="506" type="qcurve" smooth="yes"/>
      <point x="539.554" y="506"/>
      <point x="608.713" y="455"/>
      <point x="629.583" y="365"/>
      <point x="617.042" y="306" type="qcurve" smooth="yes"/>
      <point x="591.961" y="188" type="line" smooth="yes"/>
      <point x="572.831" y="98"/>
      <point x="460.512" y="-7"/>
      <point x="365.512" y="-7" type="qcurve" smooth="yes"/>
      <point x="295.512" y="-7" type="line"/>
      <point x="252.151" y="-211" type="line"/>
      <point x="237.426" y="-205" type="line"/>
      <point x="279.512" y="-7" type="line"/>
      <point x="215.512" y="-7" type="line" smooth="yes"/>
      <point x="119.512" y="-7"/>
      <point x="48.8305" y="98"/>
      <point x="67.9606" y="188" type="qcurve" smooth="yes"/>
    </contour>
    <contour>
      <point x="369.126" y="10" type="line" smooth="yes"/>
      <point x="454.126" y="10"/>
      <point x="557.893" y="103"/>
      <point x="575.323" y="185" type="qcurve" smooth="yes"/>
      <point x="603.168" y="316" type="line" smooth="yes"/>
      <point x="608.482" y="341"/>
      <point x="605.023" y="400"/>
      <point x="581.501" y="454"/>
      <point x="528.728" y="488"/>
      <point x="483.728" y="488" type="qcurve" smooth="yes"/>
      <point x="442.728" y="488"/>
      <point x="391.163" y="443"/>
      <point x="381.385" y="397" type="qcurve" smooth="yes"/>
      <point x="299.126" y="10" type="line"/>
    </contour>
  </outline>
</glyph>
<glyph name="psi" format="1">
  <advance width="590"/>
  <unicode hex="03C8"/>
  <outline>
    <contour>
      <point x="632.128" y="504" type="line"/>
      <point x="646.815" y="479"/>
      <point x="646.274" y="420"/>
      <point x="639.047" y="386" type="qcurve" smooth="yes"/>
      <point x="596.961" y="188" type="line" smooth="yes"/>
      <point x="577.831" y="98"/>
      <point x="462.512" y="-7"/>
      <point x="367.512" y="-7" type="qcurve" smooth="yes"/>
      <point x="303.512" y="-7" type="line"/>
      <point x="260.151" y="-211" type="line"/>
      <point x="244.426" y="-205" type="line"/>
      <point x="286.512" y="-7" type="line"/>
      <point x="216.512" y="-7" type="line" smooth="yes"/>
      <point x="122.512" y="-7"/>
      <point x="52.8306" y="98"/>
      <point x="71.9606" y="188" type="qcurve" smooth="yes"/>
      <point x="137.853" y="498" type="line"/>
      <point x="154.853" y="498" type="line"/>
      <point x="88.323" y="185" type="line" smooth="yes"/>
      <point x="70.8933" y="103"/>
      <point x="136.126" y="10"/>
      <point x="220.126" y="10" type="qcurve" smooth="yes"/>
      <point x="290.126" y="10" type="line"/>
      <point x="393.853" y="498" type="line"/>
      <point x="410.853" y="498" type="line"/>
      <point x="307.126" y="10" type="line"/>
      <point x="371.126" y="10" type="line" smooth="yes"/>
      <point x="421.126" y="10"/>
      <point x="505.203" y="48"/>
      <point x="563.144" y="123"/>
      <point x="574.835" y="178" type="qcurve" smooth="yes"/>
      <point x="619.472" y="388" type="line" smooth="yes"/>
      <point x="629.037" y="433"/>
      <point x="626.602" y="478"/>
      <point x="610.853" y="498" type="qcurve"/>
    </contour>
  </outline>
</glyph>
<glyph name="quotesinglbase" format="1">
  <advance width="113"/>
  <unicode hex="201A"/>
  <outline>
    <contour>
      <point x="24.4107" y="-31" type="line"/>
      <point x="42.3865" y="-17"/>
      <point x="58.9758" y="14"/>
      <point x="62.1014" y="24" type="qcurve"/>
      <point x="57.5265" y="26"/>
      <point x="53.227" y="34"/>
      <point x="54.5023" y="40" type="qcurve" smooth="yes"/>
      <point x="56.2028" y="48"/>
      <point x="67.1158" y="57"/>
      <point x="74.1158" y="57" type="qcurve" smooth="yes"/>
      <point x="82.1158" y="57"/>
      <point x="89.2028" y="48"/>
      <point x="87.5023" y="40" type="qcurve" smooth="yes"/>
      <point x="83.2511" y="20"/>
      <point x="65.087" y="-9"/>
      <point x="46.0484" y="-28"/>
      <point x="32.1354" y="-37"/>
      <point x="32.1354" y="-37" type="qcurve"/>
    </contour>
  </outline>
</glyph>
<glyph name="quotedblright" format="1">
  <advance width="282"/>
  <unicode hex="201D"/>
  <outline>
    <contour>
      <point x="151.621" y="591" type="line"/>
      <point x="168.597" y="605"/>
      <point x="184.973" y="635"/>
      <point x="188.312" y="646" type="qcurve"/>
      <point x="183.737" y="648"/>
      <point x="179.225" y="655"/>
      <point x="180.5" y="661" type="qcurve" smooth="yes"/>
      <point x="182.2" y="669"/>
      <point x="194.326" y="679"/>
      <point x="200.326" y="679" type="qcurve" smooth="yes"/>
      <point x="208.326" y="679"/>
      <point x="215.2" y="669"/>
      <point x="213.5" y="661" type="qcurve" smooth="yes"/>
      <point x="209.249" y="641"/>
      <point x="191.085" y="612"/>
      <point x="172.259" y="594"/>
      <point x="158.346" y="585"/>
      <point x="158.346" y="585" type="qcurve"/>
    </contour>
    <contour>
      <point x="330.621" y="591" type="line"/>
      <point x="348.597" y="605"/>
      <point x="363.973" y="635"/>
      <point x="367.312" y="646" type="qcurve"/>
      <point x="363.737" y="648"/>
      <point x="358.225" y="655"/>
      <point x="359.5" y="661" type="qcurve" smooth="yes"/>
      <point x="361.2" y="669"/>
      <point x="373.326" y="679"/>
      <point x="380.326" y="679" type="qcurve" smooth="yes"/>
      <point x="388.326" y="679"/>
      <point x="394.2" y="669"/>
      <point x="392.5" y="661" type="qcurve" smooth="yes"/>
      <point x="388.249" y="641"/>
      <point x="371.085" y="612"/>
      <point x="351.259" y="594"/>
      <point x="338.346" y="585"/>
      <point x="338.346" y="585" type="qcurve"/>
    </contour>
  </outline>
</glyph>
<glyph name="bullet" format="1">
  <advance width="269"/>
  <unicode hex="2022"/>
  <outline>
    <contour>
      <point x="292.723" y="408" type="qcurve"/>
      <point x="315.921" y="376"/>
      <point x="307.206" y="335" type="qcurve" smooth="yes"/>
      <point x="302.955" y="315"/>
      <point x="279.091" y="278"/>
      <point x="261.902" y="263" type="qcurve" smooth="yes"/>
      <point x="224.313" y="232"/>
      <point x="182.313" y="232" type="qcurve" smooth="yes"/>
      <point x="139.313" y="232"/>
      <point x="115.902" y="263" type="qcurve" smooth="yes"/>
      <point x="92.2791" y="293"/>
      <point x="101.206" y="335" type="qcurve" smooth="yes"/>
      <point x="110.346" y="378"/>
      <point x="146.723" y="408" type="qcurve" smooth="yes"/>
      <point x="183.312" y="439"/>
      <point x="226.312" y="439" type="qcurve" smooth="yes"/>
      <point x="268.312" y="439"/>
    </contour>
  </outline>
</glyph>
<glyph name="perthousand" format="1">
  <advance width="1053"/>
  <unicode hex="2030"/>
  <outline>
    <contour>
      <point x="66" y="0" type="line"/>
      <point x="751.365" y="698" type="line"/>
      <point x="777.365" y="698" type="line"/>
      <point x="92" y="0" type="line"/>
    </contour>
    <contour>
      <point x="324.34" y="712" type="qcurve" smooth="yes"/>
      <point x="364.34" y="712"/>
      <point x="421.051" y="673"/>
      <point x="447.022" y="607"/>
      <point x="438.307" y="566" type="qcurve" smooth="yes"/>
      <point x="429.805" y="526"/>
      <point x="375.776" y="460"/>
      <point x="302.486" y="421"/>
      <point x="262.486" y="421" type="qcurve" smooth="yes"/>
      <point x="222.486" y="421"/>
      <point x="163.776" y="460"/>
      <point x="138.805" y="526"/>
      <point x="147.307" y="566" type="qcurve" smooth="yes"/>
      <point x="156.022" y="607"/>
      <point x="209.051" y="673"/>
      <point x="284.34" y="712"/>
    </contour>
    <contour>
      <point x="320.089" y="692" type="qcurve" smooth="yes"/>
      <point x="285.089" y="692"/>
      <point x="220.862" y="658"/>
      <point x="174.746" y="601"/>
      <point x="167.307" y="566" type="qcurve" smooth="yes"/>
      <point x="160.08" y="532"/>
      <point x="181.964" y="475"/>
      <point x="231.737" y="441"/>
      <point x="266.737" y="441" type="qcurve" smooth="yes"/>
      <point x="300.737" y="441"/>
      <point x="363.964" y="475"/>
      <point x="410.08" y="532"/>
      <point x="417.307" y="566" type="qcurve" smooth="yes"/>
      <point x="424.746" y="601"/>
      <point x="402.862" y="658"/>
      <point x="354.089" y="692"/>
    </contour>
    <contour>
      <point x="590.666" y="276" type="qcurve" smooth="yes"/>
      <point x="631.666" y="276"/>
      <point x="688.376" y="237"/>
      <point x="713.347" y="171"/>
      <point x="704.845" y="131" type="qcurve" smooth="yes"/>
      <point x="696.343" y="91"/>
      <point x="643.314" y="25"/>
      <point x="570.024" y="-14"/>
      <point x="529.024" y="-14" type="qcurve" smooth="yes"/>
      <point x="489.024" y="-14"/>
      <point x="431.314" y="25"/>
      <point x="406.343" y="91"/>
      <point x="414.845" y="131" type="qcurve" smooth="yes"/>
      <point x="423.347" y="171"/>
      <point x="476.376" y="237"/>
      <point x="550.666" y="276"/>
    </contour>
    <contour>
      <point x="586.414" y="256" type="qcurve" smooth="yes"/>
      <point x="552.414" y="256"/>
      <point x="488.188" y="222"/>
      <point x="442.284" y="166"/>
      <point x="434.845" y="131" type="qcurve" smooth="yes"/>
      <point x="427.618" y="97"/>
      <point x="449.502" y="40"/>
      <point x="499.488" y="7"/>
      <point x="533.488" y="7" type="qcurve" smooth="yes"/>
      <point x="568.488" y="7"/>
      <point x="632.502" y="40"/>
      <point x="678.618" y="97"/>
      <point x="685.845" y="131" type="qcurve" smooth="yes"/>
      <point x="693.284" y="166"/>
      <point x="671.188" y="222"/>
      <point x="621.414" y="256"/>
    </contour>
    <contour>
      <point x="936.666" y="276" type="qcurve" smooth="yes"/>
      <point x="976.666" y="276"/>
      <point x="1034.38" y="237"/>
      <point x="1059.35" y="171"/>
      <point x="1050.84" y="131" type="qcurve" smooth="yes"/>
      <point x="1042.34" y="91"/>
      <point x="989.314" y="25"/>
      <point x="915.024" y="-14"/>
      <point x="875.024" y="-14" type="qcurve" smooth="yes"/>
      <point x="835.024" y="-14"/>
      <point x="777.314" y="25"/>
      <point x="752.343" y="91"/>
      <point x="760.845" y="131" type="qcurve" smooth="yes"/>
      <point x="769.347" y="171"/>
      <point x="822.376" y="237"/>
      <point x="896.666" y="276"/>
    </contour>
    <contour>
      <point x="932.414" y="256" type="qcurve" smooth="yes"/>
      <point x="897.414" y="256"/>
      <point x="833.188" y="222"/>
      <point x="787.284" y="166"/>
      <point x="779.845" y="131" type="qcurve" smooth="yes"/>
      <point x="772.618" y="97"/>
      <point x="794.502" y="40"/>
      <point x="844.488" y="7"/>
      <point x="879.488" y="7" type="qcurve" smooth="yes"/>
      <point x="914.488" y="7"/>
      <point x="977.502" y="40"/>
      <point x="1022.62" y="97"/>
      <point x="1029.84" y="131" type="qcurve" smooth="yes"/>
      <point x="1037.28" y="166"/>
      <point x="1016.19" y="222"/>
      <point x="967.414" y="256"/>
    </contour>
  </outline>
</glyph>
<glyph name="y_lower_alt" format="1">
  <advance width="503"/>
  <unicode hex="9998"/>
  <outline>
    <contour>
      <point x="105.363" y="-210" type="line"/>
      <point x="256.251" y="20" type="line"/>
      <point x="123.404" y="510" type="line"/>
      <point x="144.404" y="510" type="line"/>
      <point x="270.927" y="42" type="line"/>
      <point x="570.404" y="510" type="line"/>
      <point x="590.404" y="510" type="line"/>
      <point x="127.363" y="-210" type="line"/>
    </contour>
  </outline>
</glyph>
<glyph name="ff" format="1">
  <advance width="491"/>
  <unicode hex="FB00"/>
  <outline>
    <contour>
      <point x="607.775" y="667" type="line"/>
      <point x="580.113" y="678"/>
      <point x="520.539" y="680"/>
      <point x="488.138" y="664" type="qcurve" smooth="yes"/>
      <point x="458.737" y="648"/>
      <point x="418.896" y="597"/>
      <point x="410.819" y="559" type="qcurve" smooth="yes"/>
      <point x="397.853" y="498" type="line"/>
      <point x="546.853" y="498" type="line"/>
      <point x="535.452" y="482" type="line"/>
      <point x="394.452" y="482" type="line"/>
      <point x="292" y="0" type="line"/>
      <point x="271" y="0" type="line"/>
      <point x="390.032" y="560" type="line" smooth="yes"/>
      <point x="395.558" y="586"/>
      <point x="419.123" y="631"/>
      <point x="435.949" y="649" type="qcurve"/>
      <point x="417.988" y="668"/>
      <point x="362.814" y="686"/>
      <point x="334.601" y="685" type="qcurve"/>
      <point x="299.601" y="685"/>
      <point x="234.437" y="656"/>
      <point x="186.321" y="599"/>
      <point x="177.394" y="557" type="qcurve" smooth="yes"/>
      <point x="164.853" y="498" type="line"/>
      <point x="314.853" y="498" type="line"/>
      <point x="303.452" y="482" type="line"/>
      <point x="161.452" y="482" type="line"/>
      <point x="59" y="0" type="line"/>
      <point x="39" y="0" type="line"/>
      <point x="158.032" y="560" type="line" smooth="yes"/>
      <point x="168.234" y="608"/>
      <point x="224.625" y="671"/>
      <point x="296.427" y="703"/>
      <point x="329.64" y="704" type="qcurve" smooth="yes"/>
      <point x="366.852" y="705"/>
      <point x="425.239" y="688"/>
      <point x="453.712" y="662" type="qcurve"/>
      <point x="477.538" y="680"/>
      <point x="527.364" y="698"/>
      <point x="553.364" y="698" type="qcurve" smooth="yes"/>
      <point x="570.364" y="698"/>
      <point x="607.451" y="689"/>
      <point x="616.751" y="681" type="qcurve"/>
    </contour>
  </outline>
</glyph>
<glyph name="ffl" format="1">
  <advance width="576"/>
  <unicode hex="FB04"/>
  <outline>
    <contour>
      <point x="654.312" y="646" type="line"/>
      <point x="628.688" y="676"/>
      <point x="553.877" y="691"/>
      <point x="516.326" y="679" type="qcurve" smooth="yes"/>
      <point x="477.563" y="666"/>
      <point x="414.809" y="606"/>
      <point x="407.669" y="563" type="qcurve"/>
      <point x="393.853" y="498" type="line"/>
      <point x="544.853" y="498" type="line"/>
      <point x="534.452" y="482" type="line"/>
      <point x="390.452" y="482" type="line"/>
      <point x="288" y="0" type="line"/>
      <point x="268" y="0" type="line"/>
      <point x="386.819" y="559" type="line" smooth="yes"/>
      <point x="390.645" y="577"/>
      <point x="404.234" y="608"/>
      <point x="423.399" y="637"/>
      <point x="434.949" y="649" type="qcurve"/>
      <point x="414.988" y="668"/>
      <point x="363.814" y="686"/>
      <point x="335.026" y="687" type="qcurve" smooth="yes"/>
      <point x="301.239" y="688"/>
      <point x="234.65" y="657"/>
      <point x="186.109" y="598"/>
      <point x="177.394" y="557" type="qcurve" smooth="yes"/>
      <point x="164.853" y="498" type="line"/>
      <point x="314.853" y="498" type="line"/>
      <point x="303.452" y="482" type="line"/>
      <point x="161.452" y="482" type="line"/>
      <point x="59" y="0" type="line"/>
      <point x="39" y="0" type="line"/>
      <point x="157.819" y="559" type="line" smooth="yes"/>
      <point x="165.684" y="596"/>
      <point x="203.374" y="651"/>
      <point x="253.814" y="686"/>
      <point x="306.64" y="704"/>
      <point x="329.64" y="704" type="qcurve" smooth="yes"/>
      <point x="359.64" y="704"/>
      <point x="419.239" y="688"/>
      <point x="453.712" y="662" type="qcurve"/>
      <point x="474.326" y="679"/>
      <point x="532.427" y="703"/>
      <point x="565.427" y="703" type="qcurve" smooth="yes"/>
      <point x="598.427" y="703"/>
      <point x="651.113" y="678"/>
      <point x="673.012" y="654" type="qcurve"/>
      <point x="534" y="0" type="line"/>
      <point x="517" y="0" type="line"/>
    </contour>
  </outline>
</glyph>
<glyph name="dieresistonoscomb" format="1">
  <advance width="266"/>
    <anchor name="tonos" x="292.417" y="750"/>
    <anchor name="_tonos" x="260.534" y="600"/>
    <anchor name="tonos.1" x="292.417" y="750"/>
    <anchor name="_tonos.1" x="260.534" y="600"/>
    <anchor name="tonos.2" x="292.417" y="750"/>
    <anchor name="_tonos.2" x="260.534" y="600"/>
  <outline>
    <contour>
      <point x="217.664" y="690" type="qcurve" smooth="yes"/>
      <point x="216.176" y="683"/>
      <point x="204.051" y="673"/>
      <point x="197.051" y="673" type="qcurve" smooth="yes"/>
      <point x="190.051" y="673"/>
      <point x="181.176" y="683"/>
      <point x="182.664" y="690" type="qcurve" smooth="yes"/>
      <point x="184.365" y="698"/>
      <point x="197.065" y="706"/>
      <point x="204.065" y="706" type="qcurve" smooth="yes"/>
      <point x="211.065" y="706"/>
      <point x="219.365" y="698"/>
    </contour>
    <contour>
      <point x="375.664" y="690" type="qcurve" smooth="yes"/>
      <point x="374.176" y="683"/>
      <point x="362.051" y="673"/>
      <point x="354.051" y="673" type="qcurve" smooth="yes"/>
      <point x="347.051" y="673"/>
      <point x="340.176" y="683"/>
      <point x="341.664" y="690" type="qcurve" smooth="yes"/>
      <point x="343.365" y="698"/>
      <point x="354.065" y="706"/>
      <point x="361.065" y="706" type="qcurve" smooth="yes"/>
      <point x="369.065" y="706"/>
      <point x="377.365" y="698"/>
    </contour>
    <contour>
      <point x="369.147" y="824" type="qcurve" smooth="yes"/>
      <point x="292.891" y="724" type="line"/>
      <point x="270.891" y="724" type="line"/>
      <point x="345.91" y="837" type="line" smooth="yes"/>
      <point x="350.398" y="844"/>
      <point x="364.673" y="850"/>
      <point x="370.035" y="847" type="qcurve" smooth="yes"/>
      <point x="375.398" y="844"/>
      <point x="373.422" y="830"/>
    </contour>
    <contour>
      <point x="292.417" y="750" type="move" name="tonos"/>
    </contour>
    <contour>
      <point x="260.534" y="600" type="move" name="_tonos"/>
    </contour>
    <contour>
      <point x="292.417" y="750" type="move" name="tonos.1"/>
    </contour>
    <contour>
      <point x="260.534" y="600" type="move" name="_tonos.1"/>
    </contour>
    <contour>
      <point x="292.417" y="750" type="move" name="tonos.2"/>
    </contour>
    <contour>
      <point x="260.534" y="600" type="move" name="_tonos.2"/>
    </contour>
  </outline>
</glyph>
<glyph name="tonoscomb" format="1">
  <advance width="266"/>
    <anchor name="tonos" x="292.417" y="750"/>
    <anchor name="_tonos" x="260.534" y="600"/>
    <anchor name="tonos.1" x="292.417" y="750"/>
    <anchor name="_tonos.1" x="260.534" y="600"/>
    <anchor name="tonos.2" x="292.417" y="750"/>
    <anchor name="_tonos.2" x="260.534" y="600"/>
    <anchor name="tonos.3" x="292.417" y="750"/>
    <anchor name="_tonos.3" x="260.534" y="600"/>
    <anchor name="tonos.4" x="292.417" y="750"/>
    <anchor name="_tonos.4" x="260.534" y="600"/>
    <anchor name="tonos.5" x="292.417" y="750"/>
    <anchor name="_tonos.5" x="260.534" y="600"/>
    <anchor name="tonos.6" x="292.417" y="750"/>
    <anchor name="_tonos.6" x="260.534" y="600"/>
    <anchor name="tonos.7" x="292.417" y="750"/>
    <anchor name="_tonos.7" x="260.534" y="600"/>
    <anchor name="tonos.8" x="292.417" y="750"/>
    <anchor name="_tonos.8" x="260.534" y="600"/>
    <anchor name="tonos.9" x="292.417" y="750"/>
    <anchor name="_tonos.9" x="260.534" y="600"/>
    <anchor name="tonos.10" x="292.417" y="750"/>
    <anchor name="_tonos.10" x="260.534" y="600"/>
    <anchor name="tonos.11" x="292.417" y="750"/>
    <anchor name="_tonos.11" x="260.534" y="600"/>
    <anchor name="tonos.12" x="292.417" y="750"/>
    <anchor name="_tonos.12" x="260.534" y="600"/>
    <anchor name="tonos.13" x="292.417" y="750"/>
    <anchor name="_tonos.13" x="260.534" y="600"/>
    <anchor name="tonos.14" x="292.417" y="750"/>
    <anchor name="_tonos.14" x="260.534" y="600"/>
  <outline>
    <contour>
      <point x="314.814" y="686" type="qcurve" smooth="yes"/>
      <point x="237.558" y="586" type="line"/>
      <point x="216.558" y="586" type="line"/>
      <point x="293.002" y="701" type="line"/>
      <point x="296.49" y="708"/>
      <point x="310.553" y="713"/>
      <point x="315.915" y="710" type="qcurve" smooth="yes"/>
      <point x="322.065" y="706"/>
      <point x="320.089" y="692"/>
    </contour>
    <contour>
      <point x="292.417" y="750" type="move" name="tonos"/>
    </contour>
    <contour>
      <point x="260.534" y="600" type="move" name="_tonos"/>
    </contour>
    <contour>
      <point x="292.417" y="750" type="move" name="tonos.1"/>
    </contour>
    <contour>
      <point x="260.534" y="600" type="move" name="_tonos.1"/>
    </contour>
    <contour>
      <point x="292.417" y="750" type="move" name="tonos.2"/>
    </contour>
    <contour>
      <point x="260.534" y="600" type="move" name="_tonos.2"/>
    </contour>
    <contour>
      <point x="292.417" y="750" type="move" name="tonos.3"/>
    </contour>
    <contour>
      <point x="260.534" y="600" type="move" name="_tonos.3"/>
    </contour>
    <contour>
      <point x="292.417" y="750" type="move" name="tonos.4"/>
    </contour>
    <contour>
      <point x="260.534" y="600" type="move" name="_tonos.4"/>
    </contour>
    <contour>
      <point x="292.417" y="750" type="move" name="tonos.5"/>
    </contour>
    <contour>
      <point x="260.534" y="600" type="move" name="_tonos.5"/>
    </contour>
    <contour>
      <point x="292.417" y="750" type="move" name="tonos.6"/>
    </contour>
    <contour>
      <point x="260.534" y="600" type="move" name="_tonos.6"/>
    </contour>
    <contour>
      <point x="292.417" y="750" type="move" name="tonos.7"/>
    </contour>
    <contour>
      <point x="260.534" y="600" type="move" name="_tonos.7"/>
    </contour>
    <contour>
      <point x="292.417" y="750" type="move" name="tonos.8"/>
    </contour>
    <contour>
      <point x="260.534" y="600" type="move" name="_tonos.8"/>
    </contour>
    <contour>
      <point x="292.417" y="750" type="move" name="tonos.9"/>
    </contour>
    <contour>
      <point x="260.534" y="600" type="move" name="_tonos.9"/>
    </contour>
    <contour>
      <point x="292.417" y="750" type="move" name="tonos.10"/>
    </contour>
    <contour>
      <point x="260.534" y="600" type="move" name="_tonos.10"/>
    </contour>
    <contour>
      <point x="292.417" y="750" type="move" name="tonos.11"/>
    </contour>
    <contour>
      <point x="260.534" y="600" type="move" name="_tonos.11"/>
    </contour>
    <contour>
      <point x="292.417" y="750" type="move" name="tonos.12"/>
    </contour>
    <contour>
      <point x="260.534" y="600" type="move" name="_tonos.12"/>
    </contour>
    <contour>
      <point x="292.417" y="750" type="move" name="tonos.13"/>
    </contour>
    <contour>
      <point x="260.534" y="600" type="move" name="_tonos.13"/>
    </contour>
    <contour>
      <point x="292.417" y="750" type="move" name="tonos.14"/>
    </contour>
    <contour>
      <point x="260.534" y="600" type="move" name="_tonos.14"/>
    </contour>
  </outline>
</glyph>
